<svg width="48" height="49" viewBox="0 0 48 49" fill="none" xmlns="http://www.w3.org/2000/svg">
<g clip-path="url(#clip0)">
<path d="M24 34.896C18.2103 34.896 13.5 30.1857 13.5 24.396C13.5 18.6063 18.2103 13.896 24 13.896C29.7897 13.896 34.5 18.6063 34.5 24.396C34.5 30.1857 29.7897 34.896 24 34.896Z" fill="#FDB833"/>
<path d="M24 9.396C22.7573 9.396 21.75 8.38865 21.75 7.146V2.646C21.75 1.40334 22.7573 0.395996 24 0.395996C25.2427 0.395996 26.25 1.40334 26.25 2.646V7.146C26.25 8.38865 25.2427 9.396 24 9.396Z" fill="#FDB833"/>
<path d="M11.8023 14.4486C11.2264 14.4486 10.6506 14.2289 10.2112 13.7896L7.02916 10.6075C6.15044 9.72882 6.15044 8.30419 7.02916 7.42557C7.90788 6.54695 9.33241 6.54695 10.2111 7.42557L13.3931 10.6075C14.2718 11.4863 14.2718 12.9109 13.3931 13.7895C12.9539 14.2288 12.3781 14.4486 11.8023 14.4486Z" fill="#FDB833"/>
<path d="M6.75 26.646H2.25C1.00734 26.646 0 25.6387 0 24.396C0 23.1533 1.00734 22.146 2.25 22.146H6.75C7.99266 22.146 9 23.1533 9 24.396C9 25.6387 7.99266 26.646 6.75 26.646Z" fill="#FDB833"/>
<path d="M8.62019 42.0256C8.04437 42.0256 7.46856 41.806 7.02916 41.3667C6.15044 40.4879 6.15044 39.0633 7.02916 38.1847L10.2111 35.0027C11.0898 34.1241 12.5144 34.1241 13.3931 35.0027C14.2718 35.8814 14.2718 37.3061 13.3931 38.1847L10.2111 41.3667C9.77181 41.806 9.196 42.0256 8.62019 42.0256Z" fill="#FDB833"/>
<path d="M24 48.396C22.7573 48.396 21.75 47.3887 21.75 46.146V41.646C21.75 40.4033 22.7573 39.396 24 39.396C25.2427 39.396 26.25 40.4033 26.25 41.646V46.146C26.25 47.3887 25.2427 48.396 24 48.396Z" fill="#FDB833"/>
<path d="M39.3793 42.0256C38.8035 42.0256 38.2277 41.806 37.7883 41.3667L34.6063 38.1847C33.7276 37.306 33.7276 35.8813 34.6063 35.0027C35.485 34.1241 36.9096 34.1241 37.7883 35.0027L40.9702 38.1847C41.849 39.0634 41.849 40.488 40.9702 41.3667C40.5309 41.806 39.9551 42.0256 39.3793 42.0256Z" fill="#FDB833"/>
<path d="M45.75 26.646H41.25C40.0073 26.646 39 25.6387 39 24.396C39 23.1533 40.0073 22.146 41.25 22.146H45.75C46.9927 22.146 48 23.1533 48 24.396C48 25.6387 46.9927 26.646 45.75 26.646Z" fill="#FDB833"/>
<path d="M36.1973 14.4485C35.6215 14.4485 35.0457 14.2288 34.6063 13.7895C33.7276 12.9108 33.7276 11.4862 34.6063 10.6075L37.7883 7.42557C38.667 6.54695 40.0915 6.54695 40.9702 7.42557C41.849 8.30429 41.849 9.72891 40.9702 10.6075L37.7883 13.7895C37.3491 14.2287 36.7732 14.4485 36.1973 14.4485Z" fill="#FDB833"/>
</g>
<defs>
<clipPath id="clip0">
<rect width="48" height="48" fill="white" transform="translate(0 0.395996)"/>
</clipPath>
</defs>
</svg>
