<svg width="48" height="49" viewBox="0 0 48 49" fill="none" xmlns="http://www.w3.org/2000/svg">
<g clip-path="url(#clip0)">
<path d="M29.0466 21.1034L36.2161 0.395996L8.7627 27.6886H18.9477L11.1191 48.396L39.2284 21.1034H29.0466Z" fill="#FDB833"/>
<path d="M36.8295 4.44141L35.3997 7.65436C40.2781 11.1905 43.4544 16.9127 43.4544 23.3943C43.4544 34.1397 34.7438 42.8519 23.9968 42.8519C22.1897 42.8519 20.881 42.586 19.2172 42.1259L16.2812 44.9185C18.7968 45.869 21.1548 46.2782 23.9968 46.2782C36.6368 46.2782 46.8871 36.0328 46.8871 23.3943C46.8839 15.5084 42.8956 8.55869 36.8295 4.44141Z" fill="#FDB833"/>
<path d="M13.4391 39.7269C8.08626 36.2576 4.53737 30.2456 4.53737 23.3931C4.53737 12.6461 13.2512 3.93385 23.995 3.93385C25.9565 3.93385 27.848 4.23159 29.6296 4.76973L29.6089 4.75859L32.4318 2.13314C29.8127 1.09824 26.9739 0.510742 23.9918 0.510742C11.3581 0.510742 1.11426 10.7546 1.11426 23.3931C1.11426 31.6451 5.49266 38.8528 12.0412 42.8793L13.4391 39.7269Z" fill="#FDB833"/>
</g>
<defs>
<clipPath id="clip0">
<rect width="48" height="48" fill="white" transform="translate(0 0.395996)"/>
</clipPath>
</defs>
</svg>
