<svg width="14" height="14" viewBox="0 0 14 14" fill="none" xmlns="http://www.w3.org/2000/svg">
<path d="M4.00016 13.3335C2.96957 13.3292 2.06233 12.6531 1.7635 11.6668H0.333496V10.3335H1.7635C2.10676 9.18214 3.26819 8.47965 4.4473 8.71018C5.6264 8.94072 6.43772 10.0289 6.32206 11.2248C6.20641 12.4206 5.2016 13.3332 4.00016 13.3335ZM4.00016 10.0002C3.44788 10.0002 3.00016 10.4479 3.00016 11.0002C3.00016 11.5524 3.44788 12.0002 4.00016 12.0002C4.55245 12.0002 5.00016 11.5524 5.00016 11.0002C5.00016 10.4479 4.55245 10.0002 4.00016 10.0002ZM13.6668 11.6668H7.00016V10.3335H13.6668V11.6668ZM10.0002 9.33349C8.79873 9.33318 7.79392 8.42063 7.67826 7.22477C7.56261 6.02892 8.37392 4.94072 9.55303 4.71019C10.7321 4.47965 11.8936 5.18214 12.2368 6.33349H13.6668V7.66683H12.2368C11.938 8.65315 11.0308 9.32918 10.0002 9.33349ZM10.0002 6.00016C9.44788 6.00016 9.00016 6.44787 9.00016 7.00016C9.00016 7.55244 9.44788 8.00016 10.0002 8.00016C10.5524 8.00016 11.0002 7.55244 11.0002 7.00016C11.0002 6.44787 10.5524 6.00016 10.0002 6.00016ZM7.00016 7.66683H0.333496V6.33349H7.00016V7.66683ZM5.3335 5.33349C4.13206 5.33318 3.12725 4.42063 3.0116 3.22477C2.89594 2.02892 3.70726 0.940722 4.88636 0.710185C6.06547 0.479648 7.2269 1.18214 7.57016 2.33349H13.6668V3.66683H7.57016C7.27114 4.65302 6.36401 5.32897 5.3335 5.33349ZM5.3335 2.00016C4.78815 2.0009 4.34395 2.43844 4.33498 2.98372C4.32602 3.52899 4.75559 3.98091 5.30062 3.99957C5.84565 4.01824 6.30514 3.59677 6.3335 3.05216V3.24549V3.00016C6.3335 2.44787 5.88578 2.00016 5.3335 2.00016ZM2.3335 3.66683H0.333496V2.33349H2.3335V3.66683Z" fill="#012E3B"/>
</svg>
