<svg width="38" height="34" viewBox="0 0 38 34" fill="none" xmlns="http://www.w3.org/2000/svg">
<path d="M33.9027 14.9894V4.60448H29.0719V10.2487L19.4101 0.769043L0.984985 18.8487L3.44722 21.2633L19.4101 5.59652L35.378 21.2633L37.8369 18.8487L33.9027 14.9894Z" fill="#2F7B98"/>
<path d="M33.9026 14.9896H34.0489V4.60465C34.0489 4.56722 34.0336 4.52978 34.0064 4.50256C33.9792 4.47533 33.9417 4.46002 33.9026 4.46002H29.0717C29.0326 4.46002 28.9951 4.47533 28.9679 4.50256C28.9407 4.52808 28.9254 4.56722 28.9254 4.60465V9.90348L19.512 0.667115C19.4559 0.610962 19.364 0.610962 19.3078 0.667115L0.882743 18.7468C0.853815 18.774 0.838501 18.8114 0.838501 18.8489C0.838501 18.888 0.853815 18.9254 0.882743 18.9527L3.34498 21.3656C3.40113 21.4217 3.49132 21.4217 3.54917 21.3656L19.4099 5.79919L35.2741 21.3656C35.3319 21.4217 35.4221 21.4217 35.48 21.3656L37.9388 18.9527C37.966 18.9254 37.9814 18.888 37.9814 18.8489C37.9814 18.8114 37.966 18.774 37.9388 18.7468L34.0047 14.8875L33.9026 14.9896H34.0489H33.9026L33.8005 15.0917L37.6291 18.8489L35.3779 21.061L19.512 5.4929C19.4559 5.43844 19.364 5.43844 19.3078 5.4929L3.44708 21.061L1.19244 18.8489L19.4099 0.973406L28.9696 10.3527C29.0104 10.3935 29.0734 10.4055 29.1279 10.3833C29.1823 10.3595 29.2163 10.3068 29.2163 10.2489V4.74929H33.7563V14.9896C33.7563 15.0287 33.7733 15.0645 33.8005 15.0917L33.9026 14.9896Z" fill="#2F7B98"/>
<path d="M6.6615 22.1431V33.1373H15.4486V23.1862H23.7083V33.1373H32.1636V22.1431L19.41 9.25L6.6615 22.1431Z" fill="#2F7B98"/>
<path d="M6.66148 22.1432H6.51514V33.1374C6.51514 33.1748 6.53045 33.2122 6.55768 33.2395C6.5849 33.265 6.62234 33.282 6.66148 33.282H15.4486C15.4878 33.282 15.5252 33.265 15.5524 33.2395C15.5796 33.2122 15.595 33.1748 15.595 33.1374V23.3293H23.5636V33.1374C23.5636 33.1748 23.5789 33.2122 23.6045 33.2395C23.6334 33.265 23.6708 33.282 23.7083 33.282H32.1636C32.2027 33.282 32.2402 33.265 32.2674 33.2395C32.2946 33.2122 32.3099 33.1748 32.3099 33.1374V22.1432C32.3099 22.1041 32.2946 22.0684 32.2674 22.0411L19.5138 9.14801C19.4866 9.12078 19.4491 9.10547 19.41 9.10547C19.3708 9.10547 19.3334 9.12078 19.3062 9.14801L6.55768 22.0411C6.53045 22.0684 6.51514 22.1041 6.51514 22.1432H6.66148L6.76527 22.2436L19.41 9.456L32.0189 22.2011V32.9927H23.8546V23.1863C23.8546 23.1472 23.8393 23.1098 23.8121 23.0825C23.7848 23.057 23.7474 23.0417 23.7083 23.0417H15.4486C15.4112 23.0417 15.3737 23.057 15.3465 23.0825C15.3193 23.1098 15.304 23.1472 15.304 23.1863V32.9927H6.80781V22.1432H6.66148L6.76527 22.2436L6.66148 22.1432Z" fill="#2F7B98"/>
</svg>
