<svg width="200" height="58" viewBox="0 0 200 58" fill="none" xmlns="http://www.w3.org/2000/svg">
<path d="M52.5453 12.379C52.5152 12.3385 52.4858 12.2979 52.4572 12.2572C52.2159 11.9247 51.9992 11.5752 51.8088 11.2116C51.727 11.0362 51.6351 10.8612 51.5368 10.6873C51.4325 10.5165 51.3193 10.3481 51.2032 10.1784C50.9651 9.83041 50.7031 9.49922 50.419 9.18715C50.2768 9.02841 50.1295 8.86944 49.9802 8.71046C49.9036 8.63121 49.8316 8.55136 49.7519 8.47579L49.5127 8.25141L49.0297 7.80462L48.7878 7.58343C48.7039 7.51581 48.6192 7.44636 48.5348 7.3773C47.1221 6.21421 45.6275 5.15274 44.0625 4.20097C43.7699 4.02314 43.4649 3.85621 43.1571 3.69196C43.0802 3.6486 43.0029 3.61175 42.9245 3.5739L42.6857 3.46145C42.5294 3.38504 42.372 3.31045 42.2143 3.23157C42.0709 3.16114 41.9234 3.08508 41.7757 3.016C41.6236 2.94937 41.4705 2.88655 41.3205 2.82435C41.0127 2.69697 40.7077 2.56114 40.4039 2.44037C39.7887 2.21195 39.2016 1.96063 38.6627 1.73942C38.3704 1.61583 38.0805 1.49226 37.7804 1.39329C37.4797 1.29678 37.1789 1.2035 36.8781 1.11343C36.7264 1.07007 36.5771 1.01864 36.4239 0.982867C36.2725 0.945404 36.1189 0.90583 35.9682 0.867987C35.6647 0.788851 35.3639 0.70486 35.0618 0.619358C34.7904 0.55273 34.5107 0.487823 34.2263 0.428043C34.0822 0.399639 33.9378 0.369374 33.7955 0.34097C33.6472 0.309742 33.4999 0.294797 33.3535 0.272873C33.058 0.23368 32.7582 0.19449 32.4628 0.159096L32.2386 0.133008L32.0133 0.117079C31.8641 0.107283 31.7123 0.0979765 31.5619 0.0857305C31.3759 0.0732407 31.187 0.0586674 30.9972 0.0461598C30.9028 0.0395493 30.8024 0.029879 30.7135 0.0257177L30.4362 0.0177499C30.0715 0.00978993 29.7046 0.00145645 29.3409 0H29.2517L29.1833 0.00243099L29.044 0.0111318C28.9525 0.0166603 28.8594 0.0219122 28.7674 0.0285405C28.5825 0.0423679 28.3995 0.0559724 28.2205 0.0732417C28.0415 0.092336 27.8624 0.107285 27.6858 0.141324C27.5107 0.173917 27.3388 0.210617 27.1703 0.25143C26.9076 0.297969 26.6413 0.321093 26.3744 0.320513C24.6776 0.392043 23.0038 0.737845 21.4191 1.34431C21.162 1.44499 20.8886 1.53562 20.6134 1.63765C20.3399 1.74775 20.0601 1.84672 19.7863 1.94078C19.6243 1.99772 19.4625 2.04488 19.3044 2.1071L18.8291 2.2935L18.3539 2.48237L18.1172 2.57608C18.0384 2.60731 17.9647 2.64516 17.8839 2.67786C17.5748 2.81736 17.2653 2.95714 16.9552 3.09721C16.7977 3.16384 16.6498 3.24651 16.4952 3.32012L16.0431 3.54793L15.5874 3.7722L15.1415 4.01239C14.8474 4.17528 14.5457 4.32628 14.2498 4.49054C13.9582 4.66029 13.6662 4.82455 13.3706 4.9873L13.1489 5.10671L12.9342 5.23727C12.788 5.31995 12.6429 5.40702 12.4974 5.49105C12.2939 5.61219 12.082 5.73551 11.8753 5.87538C11.6701 6.01501 11.4637 6.1642 11.2574 6.31705C11.1545 6.39274 11.0517 6.47015 10.9482 6.54619C10.8947 6.58538 10.8432 6.6236 10.794 6.66561L10.6433 6.78637C10.445 6.95343 10.247 7.12038 10.0523 7.28216C8.3422 8.76602 6.80822 10.4388 5.48018 12.268C5.3858 12.3927 5.2929 12.5176 5.20149 12.6426C5.10711 12.7649 5.02877 12.8981 4.94032 13.0256C4.77204 13.2835 4.60336 13.5415 4.43427 13.7994C4.27229 14.0587 4.12338 14.3306 3.97053 14.5965C3.81879 14.8652 3.66137 15.1301 3.52713 15.4113C2.54585 17.28 1.76564 19.2461 1.19942 21.277L1.10825 21.5961C1.07778 21.7019 1.05718 21.8103 1.03127 21.9165C0.979194 22.1296 0.92986 22.3429 0.878033 22.5546L0.800075 22.875C0.774291 22.9796 0.748002 23.0882 0.730497 23.1941C0.688194 23.4101 0.645496 23.6246 0.60318 23.8392L0.474506 24.4829L0.273787 25.7779C0.265768 25.831 0.256021 25.8855 0.248989 25.9396L0.231471 26.1049L0.19483 26.4337L0.0930513 27.368C0.0723253 27.6693 0.0591253 27.9641 0.0395095 28.2654L0.0150831 28.7136L0.00694033 28.8251L0.00556981 28.8522V28.9633L0.00421025 29.1958L0 30.1228V30.3564C0.00135926 30.4325 0.00554006 30.5099 0.00974717 30.5887L0.0534194 31.5174C0.0632886 31.6708 0.0632887 31.8257 0.0821638 31.9791L0.173704 32.9065C0.190235 33.06 0.200721 33.2148 0.22305 33.371L0.290904 33.8283C0.314714 33.8338 0.337782 33.8366 0.361223 33.8421L0.500382 34.6893C0.555281 34.9702 0.620667 35.2517 0.679391 35.5309L0.772411 35.9506L0.817932 36.1627L0.873819 36.3699L1.10637 37.1997C1.13931 37.3125 1.17397 37.424 1.21172 37.5338C1.25083 37.6437 1.29489 37.7538 1.33868 37.8598C1.42775 38.0771 1.51522 38.2958 1.6054 38.5117C1.66041 38.6485 1.71112 38.7874 1.76837 38.919L1.95306 39.3179C2.07334 39.5856 2.19511 39.8491 2.31786 40.115C2.44789 40.3799 2.58457 40.6351 2.71757 40.8986C2.85291 41.1576 2.97738 41.4214 3.12629 41.6749C3.29629 41.978 3.45507 42.2932 3.61483 42.6095C3.78446 42.9216 3.9621 43.2299 4.14394 43.5312C6.13193 46.7681 8.80738 49.5354 11.9836 51.64C12.1186 51.7362 12.268 51.8205 12.41 51.9185C12.5551 52.0118 12.6991 52.1068 12.8421 52.2035C12.9887 52.2996 13.1296 52.4003 13.2786 52.4955C13.4269 52.585 13.5756 52.6756 13.7235 52.7645C13.9679 52.911 14.2099 53.059 14.4551 53.2055C14.7069 53.3429 14.9566 53.4783 15.2076 53.6169L15.5846 53.8192C15.7091 53.8887 15.8406 53.9456 15.9693 54.0105C16.2245 54.1341 16.4834 54.2578 16.739 54.3814C16.8648 54.4467 16.9977 54.4993 17.1257 54.5553C17.2573 54.6094 17.3898 54.6639 17.5184 54.7195C17.6499 54.774 17.7814 54.8268 17.9111 54.8813C18.0409 54.9355 18.171 54.991 18.3066 55.0362C18.5714 55.1268 18.8344 55.2177 19.098 55.3073C19.2295 55.3524 19.362 55.3959 19.4935 55.4392C19.6264 55.4771 19.7611 55.5125 19.8926 55.5507C20.1895 55.6305 20.486 55.7055 20.7885 55.7816C21.0949 55.8451 21.3987 55.8993 21.7023 55.9541C21.8537 55.9808 22.0056 56.0069 22.1548 56.0353C22.307 56.0582 22.4598 56.0718 22.6077 56.0895C22.9067 56.1222 23.1998 56.1534 23.4844 56.186C23.6334 56.2047 23.7855 56.2075 23.9369 56.2214C24.0877 56.2322 24.2377 56.2429 24.3881 56.2565C24.6881 56.2812 24.9818 56.3245 25.2826 56.3408C25.5834 56.3623 25.8802 56.387 26.1743 56.418L26.3975 56.4412C26.4713 56.4481 26.5454 56.4509 26.6178 56.4547C26.764 56.4659 26.9116 56.4742 27.058 56.4832C27.2976 56.5024 27.5067 56.5117 27.6935 56.5134H27.8278C27.8732 56.5089 27.918 56.5065 27.9592 56.5024C28.0442 56.4957 28.1257 56.4859 28.203 56.4752C28.4728 56.44 28.7385 56.3789 28.9965 56.2929C29.4584 56.1464 29.3909 56.0041 28.7161 55.9159C28.5352 55.8927 28.3492 55.8698 28.1618 55.8451C28.0673 55.8344 27.9743 55.8246 27.8785 55.8128C27.7834 55.8017 27.6994 55.7826 27.6078 55.7718C27.2493 55.7163 26.8895 55.6698 26.5345 55.6457C25.0819 55.4989 23.6281 55.1855 22.2107 54.9626C21.9626 54.9124 21.7178 54.8471 21.4778 54.7671C21.1882 54.6814 20.906 54.5661 20.6246 54.4619L20.202 54.2987C20.0636 54.246 19.9195 54.1928 19.7849 54.1303C19.5069 54.0096 19.2323 53.8887 18.9564 53.7679L18.748 53.678C18.6794 53.6453 18.6127 53.6116 18.5458 53.5787L18.1396 53.3804L17.7157 53.1759C17.6446 53.1406 17.572 53.1103 17.5034 53.0711L17.2957 52.9582L16.4683 52.5117C16.1965 52.3569 15.9308 52.1872 15.6615 52.0296L15.2591 51.7851L14.8695 51.522C13.8244 50.8356 12.8328 50.0721 11.9032 49.2378C11.3081 48.7153 10.7363 48.2078 10.1669 47.7092C9.89107 47.4499 9.61448 47.1915 9.33715 46.934C9.06882 46.6666 8.80654 46.3868 8.54537 46.1059L8.4167 45.9699C8.37438 45.925 8.33762 45.8762 8.29641 45.8272L8.05263 45.5407C7.88868 45.355 7.72879 45.1662 7.56447 44.9758C7.41198 44.7832 7.25566 44.585 7.10245 44.3909L6.8699 44.0989L6.75517 43.9534L6.64724 43.8014C6.48943 43.5813 6.32017 43.3723 6.15722 43.1609C6.07407 43.0532 5.98758 42.9501 5.91529 42.8373C5.84115 42.7262 5.77157 42.6134 5.70222 42.498C5.06487 41.4155 4.51934 40.2822 4.07129 39.1099C3.9705 38.8387 3.8681 38.567 3.76632 38.2941C3.71204 38.1615 3.66911 38.0212 3.62606 37.8841L3.49183 37.4702C3.29629 36.9227 3.15121 36.362 2.98503 35.8065C2.96937 35.736 2.94481 35.667 2.92669 35.5975L2.87636 35.3871L2.77495 34.9664L2.67107 34.5469L2.61753 34.3362L2.57559 34.1245C2.46431 33.5581 2.33045 32.9999 2.25137 32.4326C2.2119 32.1924 2.17587 31.9562 2.1433 31.7181C2.11715 31.482 2.10309 31.247 2.08742 31.011C2.07164 30.7773 2.06077 30.5453 2.04991 30.3131C2.04607 30.0808 2.05312 29.8502 2.05658 29.6205C2.06077 29.3913 2.06569 29.1629 2.07064 28.9337C2.0884 28.707 2.10621 28.4811 2.12406 28.2561L2.1776 27.5502L2.18389 27.4617L2.19226 27.3786L2.2157 27.2134L2.25665 26.8847C2.28663 26.6267 2.3171 26.366 2.34548 26.1066C2.38804 25.8417 2.43034 25.5758 2.47414 25.3084C2.55542 24.7799 2.66596 24.2563 2.80526 23.7399C2.82315 23.6624 2.84474 23.5837 2.86263 23.5025C2.88434 23.4226 2.9063 23.342 2.92554 23.2591C2.96934 23.0949 3.00598 22.9278 3.04138 22.758C3.07976 22.59 3.11577 22.4175 3.15117 22.2477C3.19102 22.0766 3.23852 21.9099 3.27985 21.7454C3.32488 21.577 3.36867 21.4073 3.41099 21.2415C3.45602 21.0729 3.49451 20.9049 3.54805 20.7393C3.64871 20.4091 3.75152 20.0773 3.85647 19.7439C4.48237 17.9462 5.30105 16.2205 6.29842 14.5965L6.71528 13.922C6.78104 13.8091 6.86185 13.7033 6.93389 13.5932L7.37839 12.9374L7.49028 12.7745C7.52914 12.7187 7.57146 12.6687 7.60983 12.6127C7.77107 12.4023 7.93231 12.1944 8.09282 11.9843C9.36806 10.3647 10.83 8.89904 12.4487 7.61714L12.8051 7.33496C12.8631 7.28769 12.9229 7.2388 12.9835 7.19263L13.1667 7.06206L13.9021 6.52427C14.0239 6.43475 14.1525 6.35451 14.2801 6.27184L14.6613 6.02468L15.046 5.77642C15.1716 5.69485 15.3073 5.62539 15.438 5.54837L16.1164 5.17236L16.2874 5.08L16.4603 4.99563L16.8116 4.82832C17.0449 4.71822 17.2765 4.60613 17.5114 4.49848L18.2259 4.19989L18.6704 4.01239L19.5755 3.67838L19.8023 3.59681C19.8779 3.56841 19.9559 3.54132 20.0293 3.5194L20.9515 3.23061L21.1799 3.15835C21.2603 3.13681 21.3375 3.11671 21.4134 3.09627L21.881 2.97085C22.0251 2.93446 22.1661 2.89246 22.307 2.85291C22.3794 2.83133 22.4503 2.80845 22.5241 2.78799L22.7392 2.73337C23.0277 2.6616 23.3166 2.58824 23.6061 2.51329C23.6757 2.49699 23.7484 2.47507 23.8265 2.4578C23.8984 2.4415 23.9779 2.4251 24.0534 2.40636C24.208 2.37207 24.3639 2.33728 24.5154 2.30434C24.6647 2.27066 24.8109 2.24188 24.9448 2.21997C25.0119 2.2109 25.0773 2.19949 25.1393 2.19595C25.1993 2.19327 25.2582 2.19155 25.3102 2.19328C25.636 2.19803 25.9617 2.18294 26.2856 2.14808C26.3674 2.14428 26.4496 2.13313 26.5286 2.13045C26.6095 2.13045 26.6899 2.12932 26.7678 2.13045C26.9202 2.13008 27.0724 2.13829 27.2238 2.15506C27.861 2.21998 28.6702 2.08317 29.2535 2.11587H29.2382L29.2559 2.11688L29.2944 2.12241L29.3665 2.1294C29.4162 2.13321 29.4665 2.13885 29.5148 2.14436C29.6099 2.14959 29.7085 2.15794 29.803 2.1659C29.9942 2.17667 30.1834 2.18537 30.3653 2.18879C30.4579 2.19158 30.5498 2.19331 30.6384 2.19432C30.7332 2.19337 30.8083 2.19961 30.8944 2.20132C31.0605 2.21099 31.2223 2.21209 31.3853 2.21209C32.0295 2.20131 32.6831 2.22972 33.3549 2.25411C33.5373 2.25568 33.7193 2.27404 33.8983 2.30898C34.0804 2.37522 34.2666 2.42959 34.4558 2.47174C34.5515 2.49047 34.6446 2.50543 34.7359 2.52036C34.8275 2.53812 34.9205 2.55441 35.0111 2.57033C35.3762 2.63046 35.7385 2.6617 36.0823 2.72136C36.3871 2.78909 36.6852 2.86107 36.9765 2.93729C37.1219 2.97513 37.2678 3.01027 37.4077 3.05264C37.5506 3.10151 37.6875 3.15148 37.8245 3.20047C38.0994 3.3008 38.3704 3.40293 38.6396 3.51673C38.8998 3.64177 39.1569 3.77502 39.4129 3.9122C39.5189 3.97051 39.6325 4.03124 39.751 4.09138C39.8692 4.15384 39.9895 4.22573 40.1111 4.2899C40.3454 4.41649 40.5865 4.5302 40.8333 4.63053C40.9855 4.68612 41.1288 4.75656 41.2767 4.82318C41.4229 4.89091 41.5678 4.95998 41.7167 5.02943L42.1587 5.23458C42.3024 5.30929 42.4472 5.38254 42.5881 5.45861C42.7343 5.53075 42.8767 5.60361 43.0214 5.6755C43.0931 5.71128 43.1638 5.74777 43.2362 5.78317L43.3446 5.83487L43.4481 5.89144C43.7272 6.04112 44.009 6.17964 44.2899 6.30983C44.378 6.35184 44.4742 6.39704 44.5672 6.45116C44.6602 6.50568 44.7556 6.56947 44.8526 6.63341C45.043 6.76224 45.2428 6.8938 45.4317 7.0202C45.4999 7.06637 45.5697 7.10973 45.6383 7.15737L45.8338 7.3024L46.23 7.59718L46.6283 7.88917C46.7577 7.98813 46.8822 8.09579 47.0109 8.19881L47.3927 8.511L47.5854 8.66716C47.6512 8.7186 47.7128 8.77029 47.7733 8.82723L48.5087 9.49008C48.5703 9.54594 48.6315 9.59726 48.6909 9.65568L48.8658 9.82787L49.5701 10.5232C49.6837 10.6427 49.7931 10.7652 49.9061 10.8846L50.2429 11.2495C50.3523 11.3717 50.4702 11.4873 50.5727 11.6162L51.2112 12.3754L51.2144 12.3792L52.5453 12.379ZM32.853 57.9865C33.0619 57.9812 33.2702 57.9725 33.478 57.9646L33.7927 57.9538L34.1032 57.9264C34.4192 57.9091 34.7332 57.8665 35.0422 57.799C36.5459 57.3168 38.1661 56.8997 39.68 56.3328C39.9965 56.2075 40.3078 56.076 40.6214 55.9471C40.7771 55.8832 40.9277 55.8031 41.0809 55.7295C41.2327 55.6576 41.3863 55.5847 41.5386 55.5096C41.6911 55.4379 41.8464 55.3643 42.0018 55.2913C42.1545 55.2167 42.306 55.1351 42.4612 55.06C42.7696 54.9042 43.0887 54.7604 43.4127 54.6122C43.6698 54.4858 43.9297 54.3513 44.1923 54.2088C44.3252 54.1369 44.4578 54.0637 44.5903 53.9891C44.7186 53.9102 44.8493 53.8275 44.977 53.7459C45.234 53.5804 45.4928 53.4106 45.7446 53.2397C45.9922 53.0631 46.23 52.877 46.4625 52.6979C46.5654 52.6204 46.6647 52.5458 46.7637 52.4694C46.813 52.433 46.8633 52.3937 46.9158 52.3569L47.0588 52.2402C47.2505 52.0882 47.4407 51.9361 47.6348 51.7879C48.0247 51.4987 48.394 51.1893 48.7776 50.8862C48.8916 50.7967 49.0161 50.7015 49.1406 50.6082C49.2633 50.5079 49.3857 50.4048 49.5033 50.3054C49.7062 50.1428 49.8925 49.9609 50.0596 49.7621C50.1676 49.624 50.2621 49.4986 50.3569 49.3916C50.4451 49.2905 50.5385 49.1938 50.6367 49.1021C50.8231 48.9299 51.0126 48.7914 51.2178 48.6203C51.4325 48.4265 51.6595 48.1939 51.8829 47.9807C52.2025 47.6746 52.5009 47.3475 52.7761 47.0016C52.9149 46.8294 53.0615 46.6596 53.1905 46.4778C53.2679 46.3705 53.3437 46.2632 53.4196 46.1559H51.1045C50.8968 46.3996 50.6996 46.657 50.4873 46.9024C50.3359 47.0875 50.183 47.2722 50.0257 47.4552C49.8645 47.631 49.6932 47.7974 49.5127 47.9536C49.3539 48.0908 49.1993 48.2307 49.0422 48.3716C48.8838 48.513 48.7153 48.6449 48.5541 48.7821C48.3897 48.9178 48.2271 49.0521 48.0631 49.1854L47.9414 49.2858L47.8152 49.3782C47.7302 49.4407 47.646 49.4986 47.5627 49.5597C47.3214 49.7294 47.0945 49.8815 46.8664 50.0502C46.6091 50.2227 46.3627 50.4109 46.1289 50.6137C46.0363 50.6949 45.9348 50.7766 45.8292 50.8565C45.7215 50.9328 45.6068 51.0047 45.4917 51.0779C45.262 51.2234 45.0224 51.3657 44.7958 51.5112C44.6762 51.5925 44.5476 51.6632 44.4224 51.7406C44.2958 51.8178 44.173 51.8979 44.0471 51.9743C43.7943 52.1316 43.5499 52.2972 43.2869 52.4357C43.0298 52.5799 42.7711 52.7208 42.5126 52.8486C42.3839 52.9177 42.249 52.968 42.1192 53.0221C41.9863 53.0738 41.8535 53.1241 41.7195 53.169C41.6089 53.2398 41.4942 53.3128 41.3764 53.3832C41.3184 53.4176 41.2599 53.454 41.1995 53.4894C41.1425 53.5193 41.0784 53.552 41.018 53.5832C40.7714 53.711 40.5228 53.8345 40.271 53.9581C40.022 54.0842 39.7625 54.1901 39.5093 54.3001C39.2565 54.4112 39.0075 54.5226 38.7682 54.6394C37.3537 55.2901 35.8423 55.7089 34.2928 55.8794C33.8962 55.9131 33.4685 55.9905 33.0293 56.0367C32.8104 56.0638 32.5918 56.0975 32.377 56.1301C32.2691 56.1481 32.1599 56.1684 32.0515 56.179C31.9445 56.194 31.8396 56.2076 31.7367 56.2201C30.9525 56.2687 30.1834 56.4559 29.4654 56.7728C29.1221 57.0005 29.2165 57.2707 29.8756 57.5233C30.1642 57.6331 30.4432 57.7476 30.7797 57.849C31.0578 57.9221 31.3428 57.9664 31.6301 57.9813C31.8312 57.9866 32.035 57.9921 32.2358 58C32.4428 58 32.6463 57.9921 32.853 57.9865Z" fill="#037394"/>
<path d="M21.853 22.652H31.912V23.9962H27.6909V34.4569H26.0741V23.9962H21.853V22.652Z" fill="#037394"/>
<path d="M33.473 22.652H40.9914V23.9962H35.0818V27.491H40.7445V28.8352H35.0818V33.1128H41.1348V34.4569H33.473V22.652Z" fill="#037394"/>
<path d="M52.8583 22.652V34.4569H51.2495V23.9962H45.4036V34.4569H43.7948V22.652H52.8583Z" fill="#037394"/>
<path d="M55.1281 34.4569V33.1128C56.2803 32.865 57.021 32.3089 57.3502 31.4444C57.8121 30.0844 58.0431 27.8231 58.0431 24.6603V22.652H65.1155V34.4569H63.5067V23.9962H59.6439V25.451C59.6439 28.4345 59.3732 30.6221 58.8316 32.0137C58.3112 33.3473 57.0768 34.1617 55.1281 34.4569Z" fill="#037394"/>
<path d="M73.1515 23.7352C71.9834 23.7352 71.0542 24.1675 70.364 25.0319C69.679 25.8964 69.3366 27.0746 69.3366 28.5663C69.3366 30.0528 69.679 31.2283 70.364 32.0928C71.0542 32.9573 71.9834 33.3895 73.1515 33.3895C74.3196 33.3895 75.2435 32.9573 75.9231 32.0928C76.608 31.2283 76.9505 30.0528 76.9505 28.5663C76.9505 27.0746 76.608 25.8964 75.9231 25.0319C75.2435 24.1675 74.3196 23.7352 73.1515 23.7352ZM73.1515 22.4385C74.8187 22.4385 76.1514 22.9946 77.1496 24.1068C78.1478 25.2138 78.6469 26.7003 78.6469 28.5663C78.6469 30.4271 78.1478 31.9136 77.1496 33.0258C76.1514 34.1328 74.8187 34.6862 73.1515 34.6862C71.479 34.6862 70.141 34.1328 69.1375 33.0258C68.1393 31.9188 67.6402 30.4323 67.6402 28.5663C67.6402 26.7003 68.1393 25.2138 69.1375 24.1068C70.141 22.9946 71.479 22.4385 73.1515 22.4385Z" fill="#037394"/>
<path d="M90.0678 23.5613V25.2454C89.5263 24.7447 88.9475 24.3704 88.3316 24.1227C87.721 23.8749 87.0706 23.751 86.3803 23.751C85.0211 23.751 83.9804 24.1648 83.2583 24.9924C82.5362 25.8147 82.1751 27.006 82.1751 28.5663C82.1751 30.1213 82.5362 31.3126 83.2583 32.1402C83.9804 32.9625 85.0211 33.3737 86.3803 33.3737C87.0706 33.3737 87.721 33.2498 88.3316 33.0021C88.9475 32.7543 89.5263 32.3801 90.0678 31.8793V33.5476C89.505 33.9272 88.9077 34.2118 88.2758 34.4016C87.6493 34.5914 86.9856 34.6862 86.2848 34.6862C84.4848 34.6862 83.0672 34.1407 82.0318 33.0495C80.9964 31.9531 80.4787 30.4587 80.4787 28.5663C80.4787 26.6687 80.9964 25.1743 82.0318 24.0831C83.0672 22.9867 84.4848 22.4385 86.2848 22.4385C86.9962 22.4385 87.6652 22.5334 88.2918 22.7232C88.9236 22.9076 89.5156 23.187 90.0678 23.5613Z" fill="#037394"/>
<path d="M94.1774 28.8193V33.1444H96.7579C97.6234 33.1444 98.2632 32.9678 98.6773 32.6146C99.0968 32.2562 99.3065 31.7106 99.3065 30.9779C99.3065 30.2399 99.0968 29.697 98.6773 29.3491C98.2632 28.9959 97.6234 28.8193 96.7579 28.8193H94.1774ZM94.1774 23.9645V27.5226H96.5588C97.3446 27.5226 97.9287 27.3777 98.311 27.0877C98.6985 26.7925 98.8923 26.3445 98.8923 25.7436C98.8923 25.1479 98.6985 24.7025 98.311 24.4073C97.9287 24.1121 97.3446 23.9645 96.5588 23.9645H94.1774ZM92.5686 22.652H96.6783C97.9048 22.652 98.8499 22.905 99.5136 23.411C100.177 23.9171 100.509 24.6366 100.509 25.5696C100.509 26.2918 100.339 26.8663 99.9994 27.2933C99.6596 27.7203 99.1605 27.9865 98.5021 28.0919C99.2932 28.2606 99.9065 28.6138 100.342 29.1514C100.783 29.6838 101.003 30.3506 101.003 31.1519C101.003 32.2061 100.642 33.0205 99.9197 33.5951C99.1976 34.1697 98.1702 34.4569 96.8375 34.4569H92.5686V22.652Z" fill="#037394"/>
<path d="M103.751 22.652H111.269V23.9962H105.359V27.491H111.022V28.8352H105.359V33.1128H111.412V34.4569H103.751V22.652Z" fill="#037394"/>
<path d="M112.424 22.652H122.483V23.9962H118.262V34.4569H116.645V23.9962H112.424V22.652Z" fill="#037394"/>
<path d="M124.044 22.652H126.441L129.476 30.6854L132.526 22.652H134.923V34.4569H133.354V24.091L130.288 32.1877H128.671L125.605 24.091V34.4569H124.044V22.652Z" fill="#037394"/>
<path d="M142.951 23.7352C141.783 23.7352 140.854 24.1675 140.164 25.0319C139.479 25.8964 139.136 27.0746 139.136 28.5663C139.136 30.0528 139.479 31.2283 140.164 32.0928C140.854 32.9573 141.783 33.3895 142.951 33.3895C144.119 33.3895 145.043 32.9573 145.723 32.0928C146.408 31.2283 146.75 30.0528 146.75 28.5663C146.75 27.0746 146.408 25.8964 145.723 25.0319C145.043 24.1675 144.119 23.7352 142.951 23.7352ZM142.951 22.4385C144.618 22.4385 145.951 22.9946 146.949 24.1068C147.948 25.2138 148.447 26.7003 148.447 28.5663C148.447 30.4271 147.948 31.9136 146.949 33.0258C145.951 34.1328 144.618 34.6862 142.951 34.6862C141.279 34.6862 139.941 34.1328 138.937 33.0258C137.939 31.9188 137.44 30.4323 137.44 28.5663C137.44 26.7003 137.939 25.2138 138.937 24.1068C139.941 22.9946 141.279 22.4385 142.951 22.4385Z" fill="#037394"/>
<path d="M150.963 22.652H152.572V27.491H158.418V22.652H160.027V34.4569H158.418V28.8352H152.572V34.4569H150.963V22.652Z" fill="#037394"/>
<path d="M161.58 22.652H171.639V23.9962H167.418V34.4569H165.801V23.9962H161.58V22.652Z" fill="#037394"/>
<path d="M177.174 24.2255L174.992 30.1003H179.364L177.174 24.2255ZM176.266 22.652H178.09L182.622 34.4569H180.949L179.866 31.4286H174.506L173.423 34.4569H171.727L176.266 22.652Z" fill="#037394"/>
<path d="M190.729 22.652H192.338V28.4873L197.77 22.652H199.721L195.381 27.3091L200 34.4569H198.32L194.393 28.3766L192.338 30.5826V34.4569H190.729V30.5826L188.675 28.3766L184.748 34.4569H183.068L187.687 27.3091L183.346 22.652H185.298L190.729 28.4873V22.652Z" fill="#037394"/>
</svg>
