<svg width="18" height="17" viewBox="0 0 18 17" fill="none" xmlns="http://www.w3.org/2000/svg">
<path d="M15.654 16.6071L9.93903 10.8911C7.3967 12.6986 3.89347 12.2565 1.8799 9.87407C-0.13366 7.49165 0.0141902 3.96373 2.22003 1.75814C4.42529 -0.448412 7.95356 -0.596902 10.3364 1.41656C12.7193 3.43002 13.1616 6.93359 11.354 9.47614L17.069 15.1921L15.655 16.6061L15.654 16.6071ZM6.46203 2.00013C4.56573 1.9997 2.92972 3.33082 2.54451 5.18758C2.15929 7.04434 3.13074 8.91641 4.87071 9.67038C6.61067 10.4243 8.64093 9.85297 9.73227 8.30219C10.8236 6.75141 10.6761 4.64746 9.37903 3.26414L9.98403 3.86414L9.30203 3.18414L9.29003 3.17214C8.54182 2.41932 7.52343 1.99727 6.46203 2.00013Z" fill="#2E3A59"/>
</svg>
