<svg width="54" height="54" viewBox="0 0 54 54" fill="none" xmlns="http://www.w3.org/2000/svg">
<path d="M38.864 35.4613H15.8682C8.55155 35.4613 2.60155 29.5085 2.60155 22.1946C2.60155 14.8807 8.55155 8.92793 15.8682 8.92793H38.864C46.1821 8.92793 52.1307 14.8807 52.1307 22.1946C52.1307 29.5085 46.1821 35.4613 38.864 35.4613ZM46.8238 36.321V34.9251C48.4752 33.889 49.9099 32.546 51.0502 30.9668C50.1307 33.1015 48.6585 34.939 46.8238 36.321ZM51.6682 33.5751C50.8904 36.4765 49.1599 38.9821 46.8238 40.7432V38.464C48.7904 37.2307 50.4488 35.5543 51.6682 33.5751ZM46.8238 45.1765V42.8862C48.7974 41.6487 50.4585 39.9668 51.6779 37.9793C50.9085 40.8779 49.1765 43.4043 46.8238 45.1765ZM45.0557 37.4585C43.2029 38.4362 41.1002 38.9987 38.864 38.9987H28.2502V37.2307H38.864C41.0724 37.2307 43.1654 36.739 45.0557 35.8793V37.4585ZM45.0557 41.8807C43.9571 42.4612 42.771 42.9001 41.5168 43.1557V40.5196C42.7585 40.2974 43.939 39.9251 45.0557 39.4168V41.8807ZM45.0557 46.3099C43.9599 46.8904 42.771 47.3154 41.5168 47.571V44.9418C42.7585 44.7196 43.939 44.3474 45.0557 43.839V46.3099ZM39.7488 43.3765C39.4543 43.3974 39.1654 43.421 38.864 43.421H15.8682C15.5682 43.421 15.2779 43.3974 14.9835 43.3765V40.7682H39.7488V43.3765ZM39.7488 51.3807H37.0946V49.6126C37.0946 48.1474 35.9071 46.9585 34.4418 46.9585C32.9765 46.9585 31.789 48.1474 31.789 49.6126V51.3807H30.0196V49.6126C30.0196 48.1474 28.8307 46.9585 27.3668 46.9585C25.9015 46.9585 24.7127 48.1474 24.7127 49.6126V51.3807H22.9446V49.6126C22.9446 48.1474 21.7557 46.9585 20.2904 46.9585C18.8265 46.9585 17.6377 48.1474 17.6377 49.6126V51.3807H14.9835V45.1904H39.7488V51.3807ZM35.3265 51.3807H33.5571V49.6126C33.5571 49.1251 33.9543 48.7279 34.4418 48.7279C34.9293 48.7279 35.3265 49.1251 35.3265 49.6126V51.3807ZM28.2502 51.3807H26.4821V49.6126C26.4821 49.1251 26.8793 48.7279 27.3668 48.7279C27.8529 48.7279 28.2502 49.1251 28.2502 49.6126V51.3807ZM21.1752 51.3807H19.4057V49.6126C19.4057 49.1251 19.8043 48.7279 20.2904 48.7279C20.7779 48.7279 21.1752 49.1251 21.1752 49.6126V51.3807ZM9.67794 37.4585V35.8793C11.5668 36.739 13.6613 37.2307 15.8682 37.2307H26.4821V38.9987H15.8682C13.6335 38.9987 11.5293 38.4362 9.67794 37.4585ZM13.2154 43.1557C11.9613 42.9001 10.7766 42.4612 9.67794 41.8807V39.4168C10.7932 39.9251 11.9752 40.2974 13.2154 40.5196V43.1557ZM13.2154 47.571C11.9613 47.3154 10.7724 46.8904 9.67794 46.3099V43.839C10.7932 44.3474 11.9752 44.7196 13.2154 44.9418V47.571ZM7.90849 36.321C6.07377 34.939 4.60294 33.1015 3.6835 30.9668C4.82377 32.546 6.25711 33.889 7.90849 34.9251V36.321ZM7.90849 40.7432C5.57377 38.9821 3.84183 36.4765 3.06544 33.5751C4.28072 35.5543 5.93905 37.2307 7.90849 38.464V40.7432ZM7.90849 45.1765C5.55572 43.4043 3.82516 40.8779 3.05433 37.9793C4.271 39.9668 5.93627 41.6487 7.90849 42.8862V45.1765ZM10.5613 2.73627H13.2154V4.50572H10.5613V2.73627ZM19.4057 1.85294H22.0599V3.62099H19.4057V1.85294ZM28.2502 1.85294H30.9043V3.62099H28.2502V1.85294ZM37.0946 1.85294H39.7488V3.62099H37.0946V1.85294ZM45.939 2.73627H48.5932V4.50572H45.939V2.73627ZM45.9265 8.92793H45.939V6.27516H49.4779C49.964 6.27516 50.3613 5.87794 50.3613 5.39044V1.85294C50.3613 1.36544 49.964 0.968218 49.4779 0.968218H44.171V8.14321C42.5196 7.51821 40.7335 7.15849 38.864 7.15849H37.0946V5.39044H40.6335C41.1196 5.39044 41.5168 4.99322 41.5168 4.50572V0.968218C41.5168 0.480718 41.1196 0.0834961 40.6335 0.0834961H35.3265V7.15849H28.2502V5.39044H31.789C32.2752 5.39044 32.6724 4.99322 32.6724 4.50572V0.968218C32.6724 0.480718 32.2752 0.0834961 31.789 0.0834961H26.4821V7.15849H19.4057V5.39044H22.9446C23.4307 5.39044 23.8279 4.99322 23.8279 4.50572V0.968218C23.8279 0.480718 23.4307 0.0834961 22.9446 0.0834961H17.6377V7.15849H15.8682C14.0002 7.15849 12.2141 7.51821 10.5613 8.14321V6.27516H14.1002C14.5863 6.27516 14.9835 5.87794 14.9835 5.39044V1.85294C14.9835 1.36544 14.5863 0.968218 14.1002 0.968218H8.79322V8.92793H8.80711C4.06683 11.4599 0.833496 16.4557 0.833496 22.1946V34.5765C0.833496 41.8835 6.10572 48.096 13.2154 49.364V52.2654C13.2154 52.7529 13.6127 53.1501 14.1002 53.1501H40.6335C41.1196 53.1501 41.5168 52.7529 41.5168 52.2654V49.364C48.6279 48.096 53.9002 41.8835 53.9002 34.5765V22.1946C53.9002 16.4557 50.6654 11.4599 45.9265 8.92793Z" fill="#037394"/>
</svg>
