<svg width="45" height="48" viewBox="0 0 45 48" fill="none" xmlns="http://www.w3.org/2000/svg">
<path d="M43.8755 14.7989L22.9247 0.831695C22.6675 0.660268 22.3328 0.660268 22.0757 0.831695L1.12487 14.7989C0.912118 14.9407 0.784058 15.18 0.784058 15.4356C0.784058 15.6912 0.911607 15.9305 1.12487 16.0724L4.30698 18.1938V29.3738C4.30698 29.6345 4.43963 29.8773 4.65902 30.0181L22.2094 41.2696C22.3354 41.3502 22.4787 41.3905 22.6226 41.3905C22.7731 41.3905 22.9241 41.3461 23.0537 41.2573L32.2103 35.0104V39.3665L28.7991 46.1889C28.6807 46.4261 28.6935 46.7083 28.8322 46.9338C28.9715 47.1588 29.2185 47.2965 29.4833 47.2965H36.4674C36.7327 47.2965 36.9791 47.1588 37.1184 46.9338C37.2572 46.7083 37.2704 46.4261 37.1516 46.1889L33.7404 39.3665V33.9661L39.5449 30.0059C39.7536 29.8635 39.8786 29.6268 39.8786 29.3738V18.7366L43.875 16.0724C44.0877 15.9305 44.2158 15.6912 44.2158 15.4356C44.2158 15.18 44.0882 14.9407 43.8755 14.7989ZM30.722 45.7659L32.9756 41.2588L35.2291 45.7659H30.722ZM22.6094 39.7078L5.83758 28.9554V19.2142L22.0757 30.0401C22.2043 30.1258 22.3522 30.1686 22.5002 30.1686C22.6481 30.1686 22.7961 30.1258 22.9247 30.0401L32.2103 23.8493V33.1574L22.6094 39.7078ZM38.3485 28.9697L33.7409 32.1135V22.8289L38.3485 19.757V28.9697ZM38.848 17.5846C38.7352 17.6264 38.6357 17.6933 38.5551 17.78L32.9756 21.4999L22.9247 14.7989C22.5721 14.5642 22.0976 14.6596 21.8634 15.0111C21.6293 15.3627 21.7242 15.8382 22.0757 16.0724L31.596 22.4192L22.5002 28.4835L2.92893 15.4356L22.5002 2.38831L42.0714 15.4356L38.848 17.5846Z" fill="#012E3B"/>
</svg>
