<svg width="39" height="40" viewBox="0 0 39 40" fill="none" xmlns="http://www.w3.org/2000/svg">
<path fill-rule="evenodd" clip-rule="evenodd" d="M24.3561 5.65572C24.3561 8.33296 22.1782 10.5114 19.5005 10.5114C16.8232 10.5114 14.6448 8.33296 14.6448 5.65572C14.6448 2.97849 16.8232 0.800049 19.5005 0.800049C22.1782 0.800049 24.3561 2.97849 24.3561 5.65572ZM23.0019 5.65572C23.0019 3.72465 21.4311 2.15424 19.5005 2.15424C17.5698 2.15424 15.999 3.72465 15.999 5.65572C15.999 7.5868 17.5694 9.15721 19.5005 9.15721C21.4315 9.15721 23.0019 7.5868 23.0019 5.65572Z" fill="#012E3B"/>
<path fill-rule="evenodd" clip-rule="evenodd" d="M1.56601 14.3335H37.434C37.8082 14.3335 38.1111 14.6364 38.1111 15.0106V18.7576C38.1111 19.1318 37.8078 19.4347 37.434 19.4347H24.4825V24.9084H31.3686C31.7423 24.9084 32.0457 25.2117 32.0457 25.5854V38.5229C32.0457 38.8967 31.7423 39.2 31.3686 39.2H26.3924C26.0186 39.2 25.7153 38.8967 25.7153 38.5229V30.0656H18.6536L6.44742 39.0678C6.33096 39.1535 6.19012 39.2 6.04567 39.2H1.56601C1.29562 39.2 1.05142 39.0398 0.944437 38.7915C0.837456 38.5437 0.888013 38.2557 1.07309 38.0589L14.5689 23.7234V19.2979L1.57323 19.4347C1.39809 19.4325 1.21844 19.3661 1.08979 19.2388C0.961139 19.112 0.888916 18.9382 0.888916 18.7576V15.0106C0.888916 14.6364 1.1918 14.3335 1.56601 14.3335ZM23.8054 18.0805H36.7565V15.6877H2.24265V18.0733L15.2384 17.9365C15.3964 17.9374 15.5932 18.0051 15.7218 18.1324C15.8505 18.2593 15.9227 18.4331 15.9227 18.6136V23.9916C15.9227 24.164 15.8568 24.3301 15.7385 24.4556L3.13371 37.8458H5.82313L18.0294 28.8436C18.1458 28.7579 18.2867 28.7114 18.4311 28.7114H26.3924C26.7661 28.7114 27.0695 29.0147 27.0695 29.3885V37.8458H30.6915V26.2625H23.8054C23.4317 26.2625 23.1283 25.9592 23.1283 25.5854V18.7576C23.1283 18.3834 23.4317 18.0805 23.8054 18.0805Z" fill="#012E3B"/>
</svg>
