<svg width="37" height="42" viewBox="0 0 37 42" fill="none" xmlns="http://www.w3.org/2000/svg">
<path fill-rule="evenodd" clip-rule="evenodd" d="M11.5358 19.0663H25.4644C25.8538 19.0663 26.1699 19.3819 26.1699 19.7718V32.7202C26.1699 33.1097 25.8538 33.4258 25.4644 33.4258H11.5358C11.1459 33.4258 10.8302 33.1097 10.8302 32.7202V19.7718C10.8302 19.3819 11.1459 19.0663 11.5358 19.0663ZM17.8663 20.4774H12.2413V32.0147H17.8663V20.4774ZM19.2769 32.0147H24.7584V20.4774H19.2769V32.0147Z" fill="#012E3B"/>
<path fill-rule="evenodd" clip-rule="evenodd" d="M32.8428 1.24357L36.7496 12.9638C36.7736 13.0358 36.7858 13.1111 36.7858 13.1868V40.5336C36.7858 40.9231 36.4697 41.2392 36.0802 41.2392H0.919886C0.529963 41.2392 0.214355 40.9231 0.214355 40.5336V13.1868C0.214355 13.1111 0.226585 13.0358 0.250573 12.9638L4.15733 1.24357C4.25328 0.955242 4.5228 0.760986 4.82665 0.760986H32.1735C32.4773 0.760986 32.7468 0.955242 32.8428 1.24357ZM30.1369 14.3255C32.133 14.3255 33.7501 13.8237 35.1964 12.7658L31.665 2.17205H25.066V12.708C26.5866 13.7634 28.3302 14.3255 30.1369 14.3255ZM23.6544 2.17205H13.3457V12.58C14.9054 13.7188 16.7078 14.326 18.5845 14.326C20.3916 14.326 22.1352 13.7639 23.6544 12.7094V2.17205ZM11.9346 2.17205H5.3351L1.77546 12.8514C3.23779 13.8142 4.92683 14.326 6.69583 14.326C8.57301 14.326 10.3749 13.7188 11.9346 12.58V2.17205ZM1.62542 14.4092V39.8281H35.3747V14.3415C33.8494 15.2733 32.1269 15.7371 30.1364 15.7371C28.0805 15.7371 26.0946 15.119 24.3604 13.9445C22.6277 15.119 20.6414 15.7371 18.5845 15.7371C16.4571 15.7371 14.4129 15.0762 12.6402 13.8199C10.8674 15.0762 8.82324 15.7371 6.69583 15.7371C4.89579 15.7371 3.16771 15.2761 1.62542 14.4092Z" fill="#012E3B"/>
</svg>
