<svg width="43" height="40" viewBox="0 0 43 40" fill="none" xmlns="http://www.w3.org/2000/svg">
<path fill-rule="evenodd" clip-rule="evenodd" d="M10.9853 12.8817H17.1236C17.5098 12.8817 17.8232 13.1946 17.8232 13.5813V28.4488C17.8232 28.835 17.5103 29.1484 17.1236 29.1484H10.9853C10.5987 29.1484 10.2857 28.835 10.2857 28.4488V13.5813C10.2857 13.1946 10.5987 12.8817 10.9853 12.8817ZM11.6849 27.7492H16.424V14.2809H11.6849V27.7492Z" fill="#012E3B"/>
<path fill-rule="evenodd" clip-rule="evenodd" d="M39.4541 18.89C39.7554 18.89 40.0227 19.0826 40.1178 19.3681C40.1178 19.3681 42.1276 25.1524 42.0455 25.3753V38.5004C42.0455 38.8866 41.732 39.2 41.3459 39.2H3.6665C3.27985 39.2 2.96689 38.8866 2.96689 38.5004V9.26528H1.65163C1.26498 9.26528 0.952026 8.95232 0.952026 8.56567V4.81392C0.952026 4.42727 1.26498 4.11432 1.65163 4.11432H3.70847V1.49965C3.70847 1.11301 4.02143 0.800049 4.40808 0.800049H23.6985C24.0847 0.800049 24.3981 1.11301 24.3981 1.49965V4.11432H26.4536C26.8398 4.11432 27.1532 4.42727 27.1532 4.81392V8.56567C27.1532 8.95232 26.8398 9.26528 26.4536 9.26528H25.0241V20.9524L25.5525 19.3681C25.6476 19.0826 25.9149 18.89 26.2162 18.89H39.4541ZM38.4681 25.4546C39.1929 25.4546 39.8809 25.2639 40.4891 24.9043L38.9499 20.2892H36.3721V24.8282C37.0111 25.2317 37.7261 25.4546 38.4681 25.4546ZM34.9729 20.2892H30.6993V24.7863C31.356 25.2247 32.1017 25.4551 32.876 25.4551C33.618 25.4551 34.3335 25.2317 34.9729 24.8287V20.2892ZM29.2996 20.2892H26.7204L25.17 24.9374C25.7633 25.2718 26.4261 25.4546 27.1201 25.4546C27.8929 25.4546 28.6401 25.2238 29.2996 24.7844V20.2892ZM22.9994 2.19926H5.10768V4.11432H22.9994V2.19926ZM2.35124 5.51353V7.86607H25.7544V5.51353H2.35124ZM23.6253 9.26528H4.3661V37.8008H23.6253V9.26528ZM25.0245 26.4317V37.8008H40.6463V26.3935C39.9648 26.6939 39.2219 26.8538 38.4681 26.8538C37.4794 26.8538 36.5223 26.5796 35.673 26.0558C34.8227 26.5796 33.8652 26.8538 32.876 26.8538C31.8517 26.8538 30.8667 26.56 29.9987 26.0003C29.1279 26.56 28.1424 26.8538 27.1205 26.8538C26.3897 26.8538 25.6817 26.7093 25.0245 26.4317Z" fill="#012E3B"/>
</svg>
