<svg width="59" height="59" viewBox="0 0 59 59" fill="none" xmlns="http://www.w3.org/2000/svg">
<path d="M6.59967 53.0693H4.66217V55.0068H6.59967V53.0693Z" fill="#037394"/>
<path d="M10.4738 53.0693H8.53625V55.0068H10.4738V53.0693Z" fill="#037394"/>
<path d="M14.3504 53.0693H12.4115V55.0068H14.3504V53.0693Z" fill="#037394"/>
<path d="M37.6039 53.0693H35.6664V55.0068H37.6039V53.0693Z" fill="#037394"/>
<path d="M41.478 53.0693H39.5405V55.0068H41.478V53.0693Z" fill="#037394"/>
<path d="M45.3548 53.0693H43.4172V55.0068H45.3548V53.0693Z" fill="#037394"/>
<path d="M53.1066 53.0693H51.1677V55.0068H53.1066V53.0693Z" fill="#037394"/>
<path d="M56.0118 49.1943H49.2298V47.2568H56.0118C56.5465 47.2568 56.9812 47.6915 56.9812 48.2248C56.9812 48.7582 56.5465 49.1943 56.0118 49.1943ZM55.0437 56.9457H49.2298V51.1318H55.0437V56.9457ZM49.2298 43.3804H55.0437V45.3179H49.2298V43.3804ZM47.2923 49.1943H33.7285V42.979L47.2923 35.3498V49.1943ZM47.2923 56.9457H33.7285V51.1318H47.2923V56.9457ZM33.2465 32.8554C32.9521 32.6818 32.5854 32.6818 32.2854 32.8485L30.2312 34.0026L30.5298 24.9721H36.9257L37.384 38.6985L33.7285 40.754V33.6915C33.7285 33.3471 33.5465 33.029 33.2465 32.8554ZM31.7896 42.4123V46.2873H18.2257V42.979L31.7896 35.3498V42.4123ZM31.7896 56.9457H27.9146V53.0693C27.9146 52.5359 27.4798 52.1012 26.9451 52.1012H23.0701C22.5368 52.1012 22.1007 52.5359 22.1007 53.0693V56.9457H18.2257V48.2248H31.7896V56.9457ZM25.9771 56.9457H24.0396V54.0387H25.9771V56.9457ZM17.7451 32.8554C17.4493 32.6818 17.0826 32.6818 16.784 32.8485L13.741 34.5582L14.059 24.9721H20.4548L20.9285 39.2332L18.2257 40.754V33.6915C18.2257 33.3471 18.0437 33.029 17.7451 32.8554ZM16.2882 42.4123V49.1943H2.7229V42.979L16.2882 35.3498V42.4123ZM16.2882 56.9457H2.7229V51.1318H16.2882V56.9457ZM14.191 21.0957H20.3229L20.3493 21.7929L20.391 23.0346H14.1271L14.191 21.0957ZM14.3201 17.2207H20.1937L20.2576 19.1582H14.2548L14.3201 17.2207ZM30.6548 21.2818L30.6618 21.0957H36.7937L36.809 21.536L36.8618 23.0346H30.5937L30.6548 21.2818ZM30.791 17.2207H36.6646L36.7285 19.1582H30.7271L30.791 17.2207ZM56.9812 45.4971V42.4123C56.9812 41.8776 56.5465 41.4429 56.0118 41.4429H49.2298V33.6915C49.2298 33.3471 49.0479 33.029 48.7493 32.8554C48.4535 32.6818 48.0868 32.6818 47.7882 32.8485L39.284 37.6276L38.5729 16.2221C38.5535 15.6957 38.1257 15.2832 37.6035 15.2832H29.8521C29.3298 15.2832 28.9021 15.6957 28.884 16.2221L28.2548 35.1151L22.8312 38.1651L22.1007 16.2221C22.0826 15.6957 21.6548 15.2832 21.1326 15.2832H13.3812C12.859 15.2832 12.4312 15.6957 12.4118 16.2221L12.1548 23.9721L11.7646 35.6679L1.28123 41.5679C0.974289 41.7387 0.7854 42.0637 0.7854 42.4123V57.9137C0.7854 58.447 1.22012 58.8831 1.75484 58.8831H56.0118C56.5465 58.8831 56.9812 58.447 56.9812 57.9137V50.954C58.1048 50.5526 58.9187 49.4859 58.9187 48.2248C58.9187 46.9651 58.1048 45.8971 56.9812 45.4971Z" fill="#037394"/>
<path d="M30.8218 9.46944C30.8218 7.86528 32.1232 6.5625 33.7287 6.5625H36.6343C37.169 6.5625 37.6037 6.12778 37.6037 5.59444C37.6037 3.98889 38.9051 2.6875 40.5106 2.6875H48.262V4.625C48.262 6.23056 46.9592 7.53194 45.3551 7.53194H42.4481C41.9148 7.53194 41.4787 7.96667 41.4787 8.50139C41.4787 10.1056 40.1773 11.4069 38.5731 11.4069H30.8218V9.46944ZM29.8523 13.3458H38.5731C40.912 13.3458 42.8676 11.6806 43.319 9.46944H45.3551C48.0273 9.46944 50.1995 7.29722 50.1995 4.625V1.71806C50.1995 1.18472 49.7634 0.75 49.2301 0.75H40.5106C38.1718 0.75 36.2148 2.41528 35.7648 4.625H33.7287C31.0565 4.625 28.8843 6.79722 28.8843 9.46944V12.3764C28.8843 12.9097 29.319 13.3458 29.8523 13.3458Z" fill="#037394"/>
<path d="M14.3504 10.4389C14.3504 8.83333 15.6518 7.53194 17.2559 7.53194C17.7907 7.53194 18.2254 7.09722 18.2254 6.5625V5.59444C18.2254 3.98889 19.5268 2.6875 21.1323 2.6875H25.9768V3.65694C25.9768 5.26111 24.674 6.5625 23.0698 6.5625C22.5365 6.5625 22.1004 6.99861 22.1004 7.53194V8.50139C22.1004 10.1056 20.799 11.4069 19.1948 11.4069H14.3504V10.4389ZM13.3809 13.3458H19.1948C21.8657 13.3458 24.0393 11.1736 24.0393 8.50139V8.40278C26.249 7.95278 27.9143 5.99583 27.9143 3.65694V1.71806C27.9143 1.18472 27.4796 0.75 26.9448 0.75H21.1323C18.4601 0.75 16.2879 2.92222 16.2879 5.59444V5.69306C14.0768 6.14305 12.4115 8.1 12.4115 10.4389V12.3764C12.4115 12.9097 12.8476 13.3458 13.3809 13.3458Z" fill="#037394"/>
</svg>
