<svg width="43" height="40" viewBox="0 0 43 40" fill="none" xmlns="http://www.w3.org/2000/svg">
<path fill-rule="evenodd" clip-rule="evenodd" d="M13.492 30.6964V16.7712C13.492 16.3701 13.8172 16.0455 14.2178 16.0455H28.142C28.5427 16.0455 28.8678 16.3701 28.8678 16.7712V30.6964C28.8678 31.0971 28.5427 31.4222 28.142 31.4222H14.2178C13.8167 31.4222 13.492 31.0971 13.492 30.6964ZM21.9589 24.4601V29.9707H27.4163V24.4601H21.9589ZM21.9589 23.0086H27.4163V17.497H21.9589V23.0086ZM20.5074 17.497H14.9436V29.9702H20.5074V24.0034C20.474 23.9201 20.4546 23.8296 20.4546 23.7343C20.4546 23.639 20.474 23.5485 20.5074 23.4653V17.497Z" fill="#012E3B"/>
<path fill-rule="evenodd" clip-rule="evenodd" d="M21.7562 0.835141L41.9884 18.1255C42.2932 18.3858 42.329 18.844 42.0687 19.1489C41.925 19.3168 41.7213 19.4029 41.5161 19.4029C41.3492 19.4029 41.1818 19.3458 41.0449 19.2287L36.0336 14.9461V38.6132C36.0336 39.0138 35.7085 39.339 35.3078 39.339H6.95182C6.55071 39.339 6.22604 39.0138 6.22604 38.6132V15.4503L1.95945 19.1624C1.65753 19.4251 1.19884 19.3937 0.935627 19.0913C0.672413 18.7889 0.704347 18.3307 1.00675 18.0675L20.8083 0.839011C21.0788 0.602893 21.4828 0.601441 21.7562 0.835141ZM7.67759 37.8879H34.5821V13.7056L21.2888 2.34475L7.67759 14.1875V37.8879Z" fill="#012E3B"/>
</svg>
