<svg width="51" height="51" viewBox="0 0 51 51" fill="none" xmlns="http://www.w3.org/2000/svg">
<path d="M49.3441 0.416504H1.13988C0.680159 0.416504 0.309326 0.788726 0.309326 1.24706V31.1679C0.309326 31.6262 0.680159 31.9985 1.13988 31.9985H9.45099V33.504C7.96349 34.3679 6.95794 35.9748 6.95794 37.8165C6.95794 39.4332 7.73433 40.8679 8.93016 41.779C6.30377 42.9415 4.46488 45.5693 4.46488 48.6207V49.4512C4.46488 49.911 4.83572 50.2832 5.29544 50.2832H45.1885C45.6482 50.2832 46.0204 49.911 46.0204 49.4512V48.6207C46.0204 45.5693 44.1802 42.9415 41.5538 41.779C42.7496 40.8679 43.526 39.4332 43.526 37.8165C43.526 35.9748 42.5204 34.3679 41.0329 33.504V31.9985H49.3441C49.8038 31.9985 50.176 31.6262 50.176 31.1679V1.24706C50.176 0.788726 49.8038 0.416504 49.3441 0.416504ZM8.62044 37.8165C8.62044 35.9832 10.1107 34.4915 11.944 34.4915C13.7774 34.4915 15.269 35.9832 15.269 37.8165C15.269 39.6499 13.7774 41.1401 11.944 41.1401C10.1107 41.1401 8.62044 39.6499 8.62044 37.8165ZM35.526 41.779C33.9579 42.4735 32.6732 43.6901 31.8913 45.2082C31.1093 43.6901 29.8246 42.4735 28.2552 41.779C29.4524 40.8679 30.2288 39.4332 30.2288 37.8165C30.2288 36.5373 29.7413 35.3749 28.9496 34.4915H34.8343C34.0399 35.3749 33.5538 36.5373 33.5538 37.8165C33.5538 39.4332 34.3302 40.8679 35.526 41.779ZM28.5663 37.8165C28.5663 39.6499 27.076 41.1401 25.2427 41.1401C23.4093 41.1401 21.9177 39.6499 21.9177 37.8165C21.9177 35.9832 23.4093 34.4915 25.2427 34.4915C27.076 34.4915 28.5663 35.9832 28.5663 37.8165ZM22.2288 41.779C20.6593 42.4735 19.376 43.6901 18.5927 45.2082C17.8107 43.6901 16.5274 42.4735 14.9579 41.779C16.1538 40.8679 16.9315 39.4332 16.9315 37.8165C16.9315 36.5373 16.444 35.3749 15.651 34.4915H21.5357C20.7427 35.3749 20.2552 36.5373 20.2552 37.8165C20.2552 39.4332 21.0329 40.8679 22.2288 41.779ZM11.944 42.8026C15.1524 42.8026 17.7621 45.4124 17.7621 48.6207H6.12599C6.12599 45.4124 8.7371 42.8026 11.944 42.8026ZM25.2427 42.8026C28.4496 42.8026 31.0593 45.4124 31.0593 48.6207H19.4246C19.4246 45.4124 22.0343 42.8026 25.2427 42.8026ZM44.3579 48.6207H32.7218C32.7218 45.4124 35.3329 42.8026 38.5399 42.8026C41.7468 42.8026 44.3579 45.4124 44.3579 48.6207ZM38.5399 41.1401C36.7066 41.1401 35.2149 39.6499 35.2149 37.8165C35.2149 35.9832 36.7066 34.4915 38.5399 34.4915C40.3732 34.4915 41.8649 35.9832 41.8649 37.8165C41.8649 39.6499 40.3732 41.1401 38.5399 41.1401ZM11.1135 32.829V27.0123C11.1135 26.5526 10.7413 26.1804 10.2815 26.1804H7.78849V24.5179H42.6954V26.1804H37.7093V27.8429H39.3704V32.829H11.1135ZM18.9454 17.1165C18.6565 16.9804 18.3093 17.0248 18.0621 17.2318L15.8024 19.1137C15.2663 19.561 14.594 19.7582 13.8996 19.6721C13.2079 19.586 12.601 19.2276 12.1899 18.6637L8.1121 13.0554L10.101 11.5651L13.7621 16.6901C13.894 16.8762 14.0982 16.9998 14.3232 17.0304C14.5496 17.0637 14.7788 16.9998 14.9579 16.8568L17.7468 14.6248C18.4802 14.0373 19.4024 13.7137 20.3427 13.7137H30.1413C31.0815 13.7137 32.0038 14.0373 32.7371 14.6248L35.526 16.8568C35.7052 16.9998 35.9357 17.0637 36.1607 17.0304C36.3857 16.9998 36.5899 16.8762 36.7218 16.6901L40.3829 11.5651L42.3718 13.0554L38.294 18.6637C37.8843 19.229 37.2774 19.586 36.5857 19.6721C35.8913 19.7582 35.2177 19.5596 34.6815 19.1137L32.4232 17.2318C32.176 17.0248 31.8302 16.9804 31.5385 17.1165C31.2468 17.254 31.0593 17.5471 31.0593 17.8693V22.8568H26.0732V15.3762H24.4107V22.8568H19.4246V17.8693C19.4246 17.5471 19.2371 17.254 18.9454 17.1165ZM21.9177 8.72762C21.9177 6.89428 23.4093 5.40262 25.2427 5.40262C27.076 5.40262 28.5663 6.89428 28.5663 8.72762C28.5663 10.561 27.076 12.0512 25.2427 12.0512C23.4093 12.0512 21.9177 10.561 21.9177 8.72762ZM48.5135 30.336H41.0329V27.8429H43.526C43.9857 27.8429 44.3579 27.4707 44.3579 27.0123V23.6873C44.3579 23.229 43.9857 22.8568 43.526 22.8568H32.7218V19.6443L33.6177 20.3901C34.4982 21.1235 35.6579 21.4637 36.7899 21.3221C37.926 21.1818 38.9635 20.5693 39.6385 19.6429L44.1982 13.3721C44.4649 13.0054 44.3885 12.4901 44.0246 12.2193L40.6996 9.72484C40.5218 9.59012 40.2996 9.53456 40.0746 9.56929C39.8538 9.60262 39.6552 9.72484 39.526 9.90679L35.8802 15.011L33.7774 13.3276C32.7482 12.504 31.4579 12.0512 30.1427 12.0512H28.9496C29.7413 11.1679 30.2288 10.0054 30.2288 8.72762C30.2288 5.97762 27.9927 3.74012 25.2427 3.74012C22.4927 3.74012 20.2552 5.97762 20.2552 8.72762C20.2552 10.0054 20.7427 11.1679 21.5357 12.0512H20.3427C19.026 12.0512 17.7343 12.504 16.7079 13.3262L14.6038 15.011L10.9579 9.90679C10.8288 9.72484 10.6302 9.60262 10.4093 9.5679C10.1843 9.53456 9.9621 9.59012 9.78294 9.72484L6.45933 12.2179C6.09544 12.4901 6.01905 13.004 6.28572 13.3721L10.8454 19.6415C11.519 20.5679 12.5579 21.1804 13.694 21.3207C14.8232 21.461 15.9857 21.1235 16.8663 20.3887L17.7621 19.6443V22.8568H6.95794C6.49822 22.8568 6.12599 23.229 6.12599 23.6873V27.0123C6.12599 27.4707 6.49822 27.8429 6.95794 27.8429H9.45099V30.336H1.97044V2.079H48.5135V30.336Z" fill="#037394"/>
</svg>
