<svg width="49" height="24" viewBox="0 0 49 24" fill="none" xmlns="http://www.w3.org/2000/svg">
<path d="M48.2229 15.3614C46.8847 10.0691 45.592 9.56214 41.3084 8.62432L40.6342 8.45703C37.841 7.83351 32.8173 4.06701 31.1647 2.82503C29.4229 1.53828 27.313 0.846814 25.1475 0.853069H16.6767C14.5121 0.853069 14.0153 1.13188 13.3309 1.82131L13.2498 1.91255L10.6492 5.51683C10.3045 5.86662 10.0156 6.2164 9.75705 6.53069C9.12339 7.30123 8.70263 7.81323 7.92703 7.96024L3.82596 8.46717C1.87935 8.83723 0.672852 9.97782 0.672852 11.4986V18.8491C0.672852 19.0508 0.752964 19.2442 0.895566 19.3868C1.03817 19.5294 1.23158 19.6095 1.43325 19.6095H5.28085C5.51264 20.615 6.07844 21.5123 6.8859 22.1548C7.69335 22.7972 8.69475 23.147 9.72663 23.147C10.7585 23.147 11.7599 22.7972 12.5674 22.1548C13.3748 21.5123 13.9406 20.615 14.1724 19.6095H31.6412C31.873 20.615 32.4388 21.5123 33.2463 22.1548C34.0537 22.7972 35.0551 23.147 36.087 23.147C37.1189 23.147 38.1203 22.7972 38.9278 22.1548C39.7352 21.5123 40.301 20.615 40.5328 19.6095H44.9228C45.4414 19.6084 45.953 19.489 46.4185 19.2605C46.8841 19.032 47.2915 18.7004 47.6096 18.2909C47.9278 17.8813 48.1484 17.4046 48.2547 16.897C48.3609 16.3894 48.3501 15.8642 48.2229 15.3614ZM10.9331 7.49386C11.1917 7.17956 11.4401 6.85513 11.7696 6.5459L11.8253 6.42931L14.4259 2.82503C14.7554 2.49552 14.9734 2.34852 16.6513 2.34852H25.117C26.9559 2.3474 28.7461 2.93939 30.2218 4.03659C32.4219 5.68919 34.2773 6.97172 35.869 7.92475H10.5225L10.9331 7.49386ZM9.7317 21.6372C9.13013 21.6372 8.54208 21.4588 8.04189 21.1246C7.5417 20.7904 7.15186 20.3154 6.92165 19.7596C6.69143 19.2038 6.6312 18.5923 6.74856 18.0023C6.86592 17.4123 7.1556 16.8703 7.58098 16.4449C8.00635 16.0195 8.54831 15.7299 9.13832 15.6125C9.72833 15.4951 10.3399 15.5554 10.8957 15.7856C11.4514 16.0158 11.9265 16.4056 12.2607 16.9058C12.5949 17.406 12.7733 17.9941 12.7733 18.5956C12.7733 19.4023 12.4528 20.176 11.8824 20.7464C11.312 21.3168 10.5384 21.6372 9.7317 21.6372ZM36.0921 21.6372C35.4905 21.6372 34.9025 21.4588 34.4023 21.1246C33.9021 20.7904 33.5122 20.3154 33.282 19.7596C33.0518 19.2038 32.9916 18.5923 33.109 18.0023C33.2263 17.4123 33.516 16.8703 33.9414 16.4449C34.3667 16.0195 34.9087 15.7299 35.4987 15.6125C36.0887 15.4951 36.7003 15.5554 37.2561 15.7856C37.8118 16.0158 38.2869 16.4056 38.6211 16.9058C38.9553 17.406 39.1337 17.9941 39.1337 18.5956C39.1337 19.4023 38.8132 20.176 38.2428 20.7464C37.6724 21.3168 36.8988 21.6372 36.0921 21.6372ZM46.4081 17.3638C46.2326 17.5903 46.0074 17.7735 45.7499 17.8992C45.4924 18.0249 45.2094 18.0897 44.9228 18.0887H40.619C40.49 16.9772 39.9571 15.9519 39.1215 15.2077C38.2859 14.4635 37.206 14.0523 36.087 14.0523C34.9681 14.0523 33.8882 14.4635 33.0526 15.2077C32.217 15.9519 31.6841 16.9772 31.5551 18.0887H14.2586C14.1296 16.9772 13.5967 15.9519 12.7611 15.2077C11.9255 14.4635 10.8456 14.0523 9.72663 14.0523C8.60769 14.0523 7.52776 14.4635 6.69219 15.2077C5.85661 15.9519 5.32366 16.9772 5.19467 18.0887H2.19364V11.4986C2.19364 10.429 3.65867 10.0691 4.06422 9.97782L8.05883 9.47089H38.8143C39.294 9.68207 39.7909 9.85167 40.2996 9.97782L40.984 10.1299C44.8772 10.9815 45.5818 11.1438 46.7478 15.7518C46.8168 16.0287 46.8221 16.3176 46.7633 16.5968C46.7045 16.8761 46.583 17.1383 46.4081 17.3638Z" fill="#012E3B"/>
</svg>
