<svg width="60" height="59" viewBox="0 0 60 59" fill="none" xmlns="http://www.w3.org/2000/svg">
<path d="M30.2589 0.75C29.9061 0.75 29.5978 0.845833 29.2881 0.933333C29.1547 0.929166 29.0269 0.952778 28.9033 1.00278L28.8408 1.03056C28.7964 1.04861 28.7519 1.06806 28.7117 1.0875L2.45196 12.2069C2.27696 12.2819 2.13668 12.3986 2.03112 12.5569C1.92696 12.7167 1.87418 12.8917 1.87418 13.0819V17.825C1.87418 17.9514 1.89779 18.0722 1.9464 18.1875C1.99362 18.3042 2.06307 18.4069 2.15196 18.4958C2.23946 18.5847 2.34223 18.6528 2.4589 18.7014C2.57418 18.75 2.69501 18.7736 2.82001 18.7736H5.6589V20.6708C5.6589 21.7083 6.51723 22.568 7.55056 22.568V47.2333H5.6589C5.53251 47.2333 5.41307 47.2569 5.2964 47.3055C5.18112 47.3527 5.07834 47.4222 4.98945 47.5111C4.90057 47.6 4.83251 47.7027 4.7839 47.818C4.73668 47.9347 4.71307 48.0555 4.71307 48.1819V51.9764H1.87418C1.74918 51.9764 1.62834 52 1.51168 52.0486C1.3964 52.0958 1.29362 52.1652 1.20473 52.2541C1.11584 52.343 1.04779 52.4458 1.00057 52.5611C0.951956 52.6777 0.928345 52.7986 0.928345 52.925V57.668C0.928345 57.793 0.951956 57.9139 1.00057 58.0305C1.04779 58.1472 1.11584 58.25 1.20473 58.3389C1.29362 58.4277 1.3964 58.4958 1.51168 58.5444C1.62834 58.5916 1.74918 58.6166 1.87418 58.6166H58.6422C58.7672 58.6166 58.888 58.5916 59.0047 58.5444C59.12 58.4958 59.2228 58.4277 59.3117 58.3389C59.4005 58.25 59.4686 58.1472 59.5158 58.0305C59.5644 57.9139 59.588 57.793 59.588 57.668V52.925C59.588 52.7986 59.5644 52.6777 59.5158 52.5611C59.4686 52.4458 59.4005 52.343 59.3117 52.2541C59.2228 52.1652 59.12 52.0958 59.0047 52.0486C58.888 52 58.7672 51.9764 58.6422 51.9764H55.8033V48.1819C55.8033 48.0555 55.7797 47.9347 55.7325 47.818C55.6839 47.7014 55.6158 47.6 55.5269 47.5111C55.438 47.4222 55.3353 47.3527 55.22 47.3055C55.1033 47.2569 54.9839 47.2333 54.8575 47.2333H52.9658V22.568C53.9992 22.568 54.8575 21.7083 54.8575 20.6708V18.7736H57.6964C57.8214 18.7736 57.9422 18.75 58.0589 18.7014C58.1742 18.6528 58.2769 18.5847 58.3658 18.4958C58.4533 18.4069 58.5228 18.3042 58.57 18.1875C58.6186 18.0722 58.6422 17.9514 58.6422 17.825V13.0819C58.6422 12.8917 58.5894 12.7167 58.4853 12.5569C58.3797 12.3986 58.2394 12.2819 58.0644 12.2069L31.8047 1.0875C31.745 1.05972 31.7019 1.04167 31.6756 1.03056L31.6131 1.00278C31.4894 0.952778 31.3617 0.927778 31.2283 0.930555C30.9186 0.843055 30.6103 0.75 30.2589 0.75ZM30.2589 2.64722C30.4769 2.64722 30.6922 2.69167 30.9144 2.775C30.9325 2.78194 30.9519 2.7875 30.9714 2.79305C30.9908 2.80139 31.0144 2.80972 31.0172 2.81111C31.0269 2.81528 31.0353 2.81944 31.0436 2.82222L56.7505 13.7111V16.8764H3.76584V13.7111L29.4728 2.82222C29.4811 2.81944 29.4908 2.81528 29.4992 2.81111C29.5131 2.80555 29.5242 2.8 29.5353 2.79444C29.5575 2.78889 29.5797 2.78194 29.6019 2.775C29.8242 2.69167 30.0394 2.64722 30.2589 2.64722ZM30.2589 6.44166C28.1797 6.44166 26.4742 8.15138 26.4742 10.2361C26.4742 12.3208 28.1797 14.0305 30.2589 14.0305C32.3367 14.0305 34.0422 12.3208 34.0422 10.2361C34.0422 8.15138 32.3367 6.44166 30.2589 6.44166ZM30.2589 8.33888C31.3144 8.33888 32.1506 9.17638 32.1506 10.2361C32.1506 11.2944 31.3144 12.1333 30.2589 12.1333C29.2019 12.1333 28.3658 11.2944 28.3658 10.2361C28.3658 9.17638 29.2019 8.33888 30.2589 8.33888ZM7.55056 18.7736H15.12V20.6708H13.2283V47.2333H9.44362V20.6708H7.55056V18.7736ZM17.0117 18.7736H24.5811V20.6708H22.6894V47.2333H18.9047V20.6708H17.0117V18.7736ZM26.4742 18.7736H34.0422V20.6708H32.1506V47.2333H28.3658V20.6708H26.4742V18.7736ZM35.9353 18.7736H43.5047V20.6708H41.6117V47.2333H37.8269V20.6708H35.9353V18.7736ZM45.3964 18.7736H52.9658V20.6708H51.0728V47.2333H47.288V20.6708H45.3964V18.7736ZM16.0658 22.3014C16.3464 22.4667 16.6672 22.568 17.0117 22.568V47.2333H15.12V22.568C15.4644 22.568 15.7853 22.4667 16.0658 22.3014ZM25.5269 22.3014C25.8075 22.4667 26.1297 22.568 26.4742 22.568V47.2333H24.5811V22.568C24.9256 22.568 25.2478 22.4667 25.5269 22.3014ZM34.9894 22.3014C35.2686 22.4667 35.5908 22.568 35.9353 22.568V47.2333H34.0422V22.568C34.3881 22.568 34.7089 22.4667 34.9894 22.3014ZM44.4506 22.3014C44.7311 22.4667 45.0519 22.568 45.3964 22.568V47.2333H43.5047V22.568C43.8492 22.568 44.17 22.4667 44.4506 22.3014ZM6.60473 49.1305H53.9117V52.925C53.9117 53.05 53.9353 53.1708 53.9839 53.2875C54.0311 53.4041 54.1005 53.5069 54.1894 53.5958C54.2769 53.6847 54.3797 53.7527 54.4964 53.8014C54.6117 53.8486 54.7325 53.8736 54.8575 53.8736H57.6964V56.7194H2.82001V53.8736H5.6589C5.7839 53.8736 5.90473 53.8486 6.0214 53.8014C6.13668 53.7527 6.23945 53.6847 6.32834 53.5958C6.41584 53.5055 6.48529 53.4041 6.53251 53.2875C6.58112 53.1708 6.60473 53.05 6.60473 52.925V49.1305ZM9.44362 51.9764C9.31723 51.9764 9.1964 52 9.08112 52.0486C8.96584 52.0958 8.86306 52.1652 8.77418 52.2541C8.68529 52.343 8.61723 52.4458 8.56862 52.5611C8.5214 52.6777 8.4964 52.7986 8.4964 52.925C8.4964 53.05 8.5214 53.1708 8.56862 53.2875C8.61723 53.4041 8.68529 53.5069 8.77418 53.5958C8.86306 53.6847 8.96584 53.7527 9.08112 53.8014C9.1964 53.8486 9.31723 53.8736 9.44362 53.8736C9.56862 53.8736 9.68945 53.8486 9.80473 53.8014C9.9214 53.7527 10.0242 53.6847 10.1117 53.5958C10.2006 53.5069 10.27 53.4041 10.3172 53.2875C10.3658 53.1708 10.3895 53.05 10.3895 52.925C10.3895 52.7986 10.3658 52.6777 10.3172 52.5611C10.27 52.4458 10.2006 52.343 10.1117 52.2541C10.0242 52.1652 9.9214 52.0958 9.80473 52.0486C9.68945 52 9.56862 51.9764 9.44362 51.9764ZM13.2283 51.9764C13.102 51.9764 12.9811 52 12.8658 52.0486C12.7492 52.0958 12.6478 52.1652 12.5589 52.2541C12.47 52.343 12.402 52.4458 12.3533 52.5611C12.3061 52.6777 12.2811 52.7986 12.2811 52.925C12.2811 53.05 12.3061 53.1708 12.3533 53.2875C12.402 53.4041 12.47 53.5069 12.5589 53.5958C12.6478 53.6847 12.7492 53.7527 12.8658 53.8014C12.9811 53.8486 13.102 53.8736 13.2283 53.8736C13.3533 53.8736 13.4742 53.8486 13.5895 53.8014C13.7061 53.7527 13.8075 53.6847 13.8964 53.5958C13.9853 53.5069 14.0533 53.4041 14.102 53.2875C14.1506 53.1708 14.1742 53.05 14.1742 52.925C14.1742 52.7986 14.1506 52.6777 14.102 52.5611C14.0533 52.4458 13.9853 52.343 13.8964 52.2541C13.8075 52.1652 13.7061 52.0958 13.5895 52.0486C13.4742 52 13.3533 51.9764 13.2283 51.9764ZM17.0117 51.9764C16.8867 51.9764 16.7658 52 16.6506 52.0486C16.5339 52.0958 16.4325 52.1652 16.3436 52.2541C16.2547 52.343 16.1867 52.4458 16.1381 52.5611C16.0908 52.6777 16.0658 52.7986 16.0658 52.925C16.0658 53.05 16.0908 53.1708 16.1381 53.2875C16.1867 53.4041 16.2547 53.5069 16.3436 53.5958C16.4325 53.6847 16.5339 53.7527 16.6506 53.8014C16.7658 53.8486 16.8867 53.8736 17.0117 53.8736C17.1381 53.8736 17.2589 53.8486 17.3742 53.8014C17.4908 53.7527 17.5922 53.6847 17.6811 53.5958C17.77 53.5069 17.8381 53.4041 17.8867 53.2875C17.9339 53.1708 17.9589 53.05 17.9589 52.925C17.9589 52.7986 17.9339 52.6777 17.8867 52.5611C17.8381 52.4458 17.77 52.343 17.6811 52.2541C17.5922 52.1652 17.4908 52.0958 17.3742 52.0486C17.2589 52 17.1381 51.9764 17.0117 51.9764ZM20.7964 51.9764C20.6714 51.9764 20.5506 52 20.4353 52.0486C20.3186 52.0958 20.2172 52.1652 20.1283 52.2541C20.0394 52.343 19.9714 52.4458 19.9228 52.5611C19.8742 52.6777 19.8506 52.7986 19.8506 52.925C19.8506 53.05 19.8742 53.1708 19.9228 53.2875C19.9714 53.4041 20.0394 53.5069 20.1283 53.5958C20.2172 53.6847 20.3186 53.7527 20.4353 53.8014C20.5506 53.8486 20.6714 53.8736 20.7964 53.8736C20.9228 53.8736 21.0436 53.8486 21.1589 53.8014C21.2742 53.7527 21.3769 53.6847 21.4658 53.5958C21.5547 53.5069 21.6228 53.4041 21.6714 53.2875C21.7186 53.1708 21.7436 53.05 21.7436 52.925C21.7436 52.7986 21.7186 52.6777 21.6714 52.5611C21.6228 52.4458 21.5547 52.343 21.4658 52.2541C21.3769 52.1652 21.2742 52.0958 21.1589 52.0486C21.0436 52 20.9228 51.9764 20.7964 51.9764ZM24.5811 51.9764C24.4561 51.9764 24.3353 52 24.22 52.0486C24.1033 52.0958 24.0006 52.1652 23.9131 52.2541C23.8242 52.343 23.7547 52.4458 23.7075 52.5611C23.6589 52.6777 23.6353 52.7986 23.6353 52.925C23.6353 53.05 23.6589 53.1708 23.7075 53.2875C23.7547 53.4041 23.8242 53.5069 23.9131 53.5958C24.0006 53.6847 24.1033 53.7527 24.22 53.8014C24.3353 53.8486 24.4561 53.8736 24.5811 53.8736C24.7075 53.8736 24.8269 53.8486 24.9436 53.8014C25.0589 53.7527 25.1617 53.6847 25.2506 53.5958C25.3394 53.5069 25.4075 53.4041 25.4561 53.2875C25.5033 53.1708 25.5269 53.05 25.5269 52.925C25.5269 52.7986 25.5033 52.6777 25.4561 52.5611C25.4075 52.4458 25.3394 52.343 25.2506 52.2541C25.1617 52.1652 25.0589 52.0958 24.9436 52.0486C24.8269 52 24.7075 51.9764 24.5811 51.9764ZM28.3658 51.9764C28.2408 51.9764 28.12 52 28.0033 52.0486C27.8881 52.0958 27.7853 52.1652 27.6964 52.2541C27.6089 52.343 27.5394 52.4458 27.4922 52.5611C27.4436 52.6777 27.42 52.7986 27.42 52.925C27.42 53.05 27.4436 53.1708 27.4922 53.2875C27.5394 53.4041 27.6089 53.5069 27.6964 53.5958C27.7853 53.6847 27.8881 53.7527 28.0033 53.8014C28.12 53.8486 28.2408 53.8736 28.3658 53.8736C28.4908 53.8736 28.6117 53.8486 28.7283 53.8014C28.8436 53.7527 28.9464 53.6847 29.0353 53.5958C29.1242 53.5069 29.1922 53.4041 29.2394 53.2875C29.2881 53.1708 29.3117 53.05 29.3117 52.925C29.3117 52.7986 29.2881 52.6777 29.2394 52.5611C29.1922 52.4458 29.1242 52.343 29.0353 52.2541C28.9464 52.1652 28.8436 52.0958 28.7283 52.0486C28.6117 52 28.4908 51.9764 28.3658 51.9764ZM32.1506 51.9764C32.0256 51.9764 31.9047 52 31.7881 52.0486C31.6728 52.0958 31.57 52.1652 31.4811 52.2541C31.3922 52.343 31.3242 52.4458 31.2769 52.5611C31.2283 52.6777 31.2047 52.7986 31.2047 52.925C31.2047 53.05 31.2283 53.1708 31.2769 53.2875C31.3242 53.4041 31.3922 53.5069 31.4811 53.5958C31.57 53.6847 31.6728 53.7527 31.7881 53.8014C31.9047 53.8486 32.0256 53.8736 32.1506 53.8736C32.2756 53.8736 32.3964 53.8486 32.5131 53.8014C32.6283 53.7527 32.7311 53.6847 32.82 53.5958C32.9089 53.5069 32.9769 53.4041 33.0242 53.2875C33.0728 53.1708 33.0964 53.05 33.0964 52.925C33.0964 52.7986 33.0728 52.6777 33.0242 52.5611C32.9769 52.4458 32.9089 52.343 32.82 52.2541C32.7311 52.1652 32.6283 52.0958 32.5131 52.0486C32.3964 52 32.2756 51.9764 32.1506 51.9764ZM35.9353 51.9764C35.8103 51.9764 35.6894 52 35.5728 52.0486C35.4575 52.0958 35.3547 52.1652 35.2658 52.2541C35.1769 52.343 35.1089 52.4458 35.0603 52.5611C35.0131 52.6777 34.9894 52.7986 34.9894 52.925C34.9894 53.05 35.0131 53.1708 35.0603 53.2875C35.1089 53.4041 35.1769 53.5069 35.2658 53.5958C35.3547 53.6847 35.4575 53.7527 35.5728 53.8014C35.6894 53.8486 35.8103 53.8736 35.9353 53.8736C36.0603 53.8736 36.1811 53.8486 36.2978 53.8014C36.4131 53.7527 36.5158 53.6847 36.6047 53.5958C36.6922 53.5069 36.7617 53.4041 36.8089 53.2875C36.8575 53.1708 36.8811 53.05 36.8811 52.925C36.8811 52.7986 36.8575 52.6777 36.8089 52.5611C36.7617 52.4458 36.6922 52.343 36.6047 52.2541C36.5158 52.1652 36.4131 52.0958 36.2978 52.0486C36.1811 52 36.0603 51.9764 35.9353 51.9764ZM39.72 51.9764C39.5936 51.9764 39.4728 52 39.3575 52.0486C39.2422 52.0958 39.1394 52.1652 39.0506 52.2541C38.9617 52.343 38.8936 52.4458 38.845 52.5611C38.7978 52.6777 38.7742 52.7986 38.7742 52.925C38.7742 53.05 38.7978 53.1708 38.845 53.2875C38.8936 53.4041 38.9617 53.5069 39.0506 53.5958C39.1394 53.6847 39.2422 53.7527 39.3575 53.8014C39.4728 53.8486 39.5936 53.8736 39.72 53.8736C39.845 53.8736 39.9658 53.8486 40.0811 53.8014C40.1978 53.7527 40.3006 53.6847 40.3881 53.5958C40.4769 53.5069 40.5464 53.4041 40.5936 53.2875C40.6422 53.1708 40.6658 53.05 40.6658 52.925C40.6658 52.7986 40.6422 52.6777 40.5936 52.5611C40.5464 52.4458 40.4769 52.343 40.3881 52.2541C40.3006 52.1652 40.1978 52.0958 40.0811 52.0486C39.9658 52 39.845 51.9764 39.72 51.9764ZM43.5047 51.9764C43.3783 51.9764 43.2575 52 43.1422 52.0486C43.0256 52.0958 42.9242 52.1652 42.8353 52.2541C42.7464 52.343 42.6783 52.4458 42.6297 52.5611C42.5825 52.6777 42.5575 52.7986 42.5575 52.925C42.5575 53.05 42.5825 53.1708 42.6297 53.2875C42.6783 53.4041 42.7464 53.5069 42.8353 53.5958C42.9242 53.6847 43.0256 53.7527 43.1422 53.8014C43.2575 53.8486 43.3783 53.8736 43.5047 53.8736C43.6297 53.8736 43.7505 53.8486 43.8658 53.8014C43.9825 53.7527 44.0839 53.6847 44.1728 53.5958C44.2617 53.5069 44.3297 53.4041 44.3783 53.2875C44.4269 53.1708 44.4506 53.05 44.4506 52.925C44.4506 52.7986 44.4269 52.6777 44.3783 52.5611C44.3297 52.4458 44.2617 52.343 44.1728 52.2541C44.0839 52.1652 43.9825 52.0958 43.8658 52.0486C43.7505 52 43.6297 51.9764 43.5047 51.9764ZM47.288 51.9764C47.163 51.9764 47.0422 52 46.9269 52.0486C46.8103 52.0958 46.7089 52.1652 46.62 52.2541C46.5311 52.343 46.463 52.4458 46.4144 52.5611C46.3672 52.6777 46.3422 52.7986 46.3422 52.925C46.3422 53.05 46.3672 53.1708 46.4144 53.2875C46.463 53.4041 46.5311 53.5069 46.62 53.5958C46.7089 53.6847 46.8103 53.7527 46.9269 53.8014C47.0422 53.8486 47.163 53.8736 47.288 53.8736C47.4144 53.8736 47.5353 53.8486 47.6505 53.8014C47.7672 53.7527 47.8686 53.6847 47.9575 53.5958C48.0464 53.5069 48.1144 53.4041 48.163 53.2875C48.2103 53.1708 48.2353 53.05 48.2353 52.925C48.2353 52.7986 48.2103 52.6777 48.163 52.5611C48.1144 52.4458 48.0464 52.343 47.9575 52.2541C47.8686 52.1652 47.7672 52.0958 47.6505 52.0486C47.5353 52 47.4144 51.9764 47.288 51.9764ZM51.0728 51.9764C50.9478 51.9764 50.8269 52 50.7117 52.0486C50.595 52.0958 50.4936 52.1652 50.4047 52.2541C50.3158 52.343 50.2478 52.4458 50.1992 52.5611C50.1505 52.6777 50.1269 52.7986 50.1269 52.925C50.1269 53.05 50.1505 53.1708 50.1992 53.2875C50.2478 53.4041 50.3158 53.5069 50.4047 53.5958C50.4936 53.6847 50.595 53.7527 50.7117 53.8014C50.8269 53.8486 50.9478 53.8736 51.0728 53.8736C51.1992 53.8736 51.32 53.8486 51.4353 53.8014C51.5505 53.7527 51.6533 53.6847 51.7422 53.5958C51.8311 53.5069 51.8992 53.4041 51.9478 53.2875C51.995 53.1708 52.02 53.05 52.02 52.925C52.02 52.7986 51.995 52.6777 51.9478 52.5611C51.8992 52.4458 51.8311 52.343 51.7422 52.2541C51.6533 52.1652 51.5505 52.0958 51.4353 52.0486C51.32 52 51.1992 51.9764 51.0728 51.9764Z" fill="#037394"/>
</svg>
