<svg width="45" height="28" viewBox="0 0 45 28" fill="none" xmlns="http://www.w3.org/2000/svg">
<path fill-rule="evenodd" clip-rule="evenodd" d="M17.6842 11.9724H7.54556C7.34389 11.9724 7.15048 11.8923 7.00788 11.7497C6.86528 11.6071 6.78516 11.4137 6.78516 11.212V1.07338C6.78516 0.871715 6.86528 0.678305 7.00788 0.535704C7.15048 0.393102 7.34389 0.312988 7.54556 0.312988H17.6842C17.8858 0.312988 18.0793 0.393102 18.2219 0.535704C18.3645 0.678305 18.4446 0.871715 18.4446 1.07338V11.212C18.4446 11.4137 18.3645 11.6071 18.2219 11.7497C18.0793 11.8923 17.8858 11.9724 17.6842 11.9724ZM11.8545 1.83378H8.30595V10.4516H16.9238V1.83378H13.3753V4.11497C13.3753 4.31664 13.2951 4.51005 13.1525 4.65265C13.0099 4.79525 12.8165 4.87537 12.6149 4.87537C12.4132 4.87537 12.2198 4.79525 12.0772 4.65265C11.9346 4.51005 11.8545 4.31664 11.8545 4.11497V1.83378Z" fill="#012E3B"/>
<path d="M43.5376 15.5208H0.955464C0.753795 15.5208 0.560385 15.4407 0.417783 15.2981C0.275181 15.1555 0.195068 14.9621 0.195068 14.7604C0.195068 14.5588 0.275181 14.3654 0.417783 14.2228C0.560385 14.0802 0.753795 14 0.955464 14H43.5376C43.7393 14 43.9327 14.0802 44.0753 14.2228C44.2179 14.3654 44.298 14.5588 44.298 14.7604C44.298 14.9621 44.2179 15.1555 44.0753 15.2981C43.9327 15.4407 43.7393 15.5208 43.5376 15.5208Z" fill="#012E3B"/>
<path fill-rule="evenodd" clip-rule="evenodd" d="M36.4406 11.9724C36.6423 11.9724 36.8357 11.8923 36.9783 11.7497C37.1209 11.6071 37.201 11.4137 37.201 11.212V1.07338C37.201 0.871715 37.1209 0.678305 36.9783 0.535704C36.8357 0.393102 36.6423 0.312988 36.4406 0.312988H26.302C26.1003 0.312988 25.9069 0.393102 25.7643 0.535704C25.6217 0.678305 25.5416 0.871715 25.5416 1.07338V11.212C25.5416 11.4137 25.6217 11.6071 25.7643 11.7497C25.9069 11.8923 26.1003 11.9724 26.302 11.9724H36.4406ZM27.0624 1.83378H30.6109V4.11497C30.6109 4.31664 30.691 4.51005 30.8336 4.65265C30.9762 4.79525 31.1696 4.87537 31.3713 4.87537C31.573 4.87537 31.7664 4.79525 31.909 4.65265C32.0516 4.51005 32.1317 4.31664 32.1317 4.11497V1.83378H35.6802V10.4516H27.0624V1.83378Z" fill="#012E3B"/>
<path fill-rule="evenodd" clip-rule="evenodd" d="M4.29891 22.6744C3.93684 22.1325 3.74359 21.4955 3.74359 20.8438C3.74493 19.9703 4.09252 19.1329 4.71017 18.5153C5.32782 17.8976 6.16515 17.55 7.03864 17.5487C7.69034 17.5487 8.3274 17.742 8.86927 18.104C9.41114 18.4661 9.83347 18.9807 10.0829 19.5828C10.3323 20.1849 10.3975 20.8474 10.2704 21.4866C10.1432 22.1258 9.82941 22.7129 9.36859 23.1737C8.90777 23.6345 8.32065 23.9483 7.68147 24.0755C7.04229 24.2026 6.37977 24.1374 5.77768 23.888C5.17559 23.6386 4.66097 23.2162 4.29891 22.6744ZM8.51388 21.8295C8.70884 21.5377 8.81289 21.1947 8.81289 20.8438C8.81289 20.3732 8.62597 19.9219 8.29323 19.5892C7.96049 19.2564 7.5092 19.0695 7.03864 19.0695C6.68772 19.0695 6.34469 19.1736 6.05291 19.3685C5.76114 19.5635 5.53373 19.8406 5.39944 20.1648C5.26515 20.489 5.23001 20.8457 5.29847 21.1899C5.36693 21.5341 5.53591 21.8502 5.78405 22.0983C6.03218 22.3465 6.34833 22.5155 6.6925 22.5839C7.03667 22.6524 7.39341 22.6172 7.71762 22.483C8.04182 22.3487 8.31892 22.1213 8.51388 21.8295Z" fill="#012E3B"/>
<path fill-rule="evenodd" clip-rule="evenodd" d="M13.8822 20.8438C13.8822 21.4955 14.0754 22.1325 14.4375 22.6744C14.7996 23.2162 15.3142 23.6386 15.9163 23.888C16.5184 24.1374 17.1809 24.2026 17.8201 24.0755C18.4592 23.9483 19.0464 23.6345 19.5072 23.1737C19.968 22.7129 20.2818 22.1258 20.409 21.4866C20.5361 20.8474 20.4709 20.1849 20.2215 19.5828C19.9721 18.9807 19.5497 18.4661 19.0079 18.104C18.466 17.742 17.8289 17.5487 17.1772 17.5487C16.3037 17.55 15.4664 17.8976 14.8488 18.5153C14.2311 19.1329 13.8835 19.9703 13.8822 20.8438ZM18.9515 20.8438C18.9515 21.1947 18.8474 21.5377 18.6525 21.8295C18.4575 22.1213 18.1804 22.3487 17.8562 22.483C17.532 22.6172 17.1753 22.6524 16.8311 22.5839C16.4869 22.5155 16.1708 22.3465 15.9226 22.0983C15.6745 21.8502 15.5055 21.5341 15.4371 21.1899C15.3686 20.8457 15.4037 20.489 15.538 20.1648C15.6723 19.8406 15.8997 19.5635 16.1915 19.3685C16.4833 19.1736 16.8263 19.0695 17.1772 19.0695C17.6478 19.0695 18.0991 19.2564 18.4318 19.5892C18.7646 19.9219 18.9515 20.3732 18.9515 20.8438Z" fill="#012E3B"/>
<path fill-rule="evenodd" clip-rule="evenodd" d="M24.5761 22.6744C24.214 22.1325 24.0208 21.4955 24.0208 20.8438C24.0221 19.9703 24.3697 19.1329 24.9874 18.5153C25.605 17.8976 26.4424 17.55 27.3158 17.5487C27.9675 17.5487 28.6046 17.742 29.1465 18.104C29.6883 18.4661 30.1107 18.9807 30.3601 19.5828C30.6095 20.1849 30.6747 20.8474 30.5476 21.4866C30.4204 22.1258 30.1066 22.7129 29.6458 23.1737C29.185 23.6345 28.5979 23.9483 27.9587 24.0755C27.3195 24.2026 26.657 24.1374 26.0549 23.888C25.4528 23.6386 24.9382 23.2162 24.5761 22.6744ZM28.7911 21.8295C28.986 21.5377 29.0901 21.1947 29.0901 20.8438C29.0901 20.3732 28.9032 19.9219 28.5704 19.5892C28.2377 19.2564 27.7864 19.0695 27.3158 19.0695C26.9649 19.0695 26.6219 19.1736 26.3301 19.3685C26.0383 19.5635 25.8109 19.8406 25.6766 20.1648C25.5424 20.489 25.5072 20.8457 25.5757 21.1899C25.6441 21.5341 25.8131 21.8502 26.0613 22.0983C26.3094 22.3465 26.6255 22.5155 26.9697 22.5839C27.3139 22.6524 27.6706 22.6172 27.9948 22.483C28.319 22.3487 28.5961 22.1213 28.7911 21.8295Z" fill="#012E3B"/>
<path fill-rule="evenodd" clip-rule="evenodd" d="M34.1594 20.8438C34.1594 21.4955 34.3527 22.1325 34.7147 22.6744C35.0768 23.2162 35.5914 23.6386 36.1935 23.888C36.7956 24.1374 37.4581 24.2026 38.0973 24.0755C38.7365 23.9483 39.3236 23.6345 39.7844 23.1737C40.2452 22.7129 40.5591 22.1258 40.6862 21.4866C40.8133 20.8474 40.7481 20.1849 40.4987 19.5828C40.2493 18.9807 39.827 18.4661 39.2851 18.104C38.7432 17.742 38.1062 17.5487 37.4545 17.5487C36.581 17.55 35.7436 17.8976 35.126 18.5153C34.5083 19.1329 34.1607 19.9703 34.1594 20.8438ZM39.2287 20.8438C39.2287 21.1947 39.1247 21.5377 38.9297 21.8295C38.7347 22.1213 38.4576 22.3487 38.1334 22.483C37.8092 22.6172 37.4525 22.6524 37.1083 22.5839C36.7641 22.5155 36.448 22.3465 36.1999 22.0983C35.9517 21.8502 35.7828 21.5341 35.7143 21.1899C35.6458 20.8457 35.681 20.489 35.8153 20.1648C35.9495 19.8406 36.177 19.5635 36.4687 19.3685C36.7605 19.1736 37.1035 19.0695 37.4545 19.0695C37.925 19.0695 38.3763 19.2564 38.709 19.5892C39.0418 19.9219 39.2287 20.3732 39.2287 20.8438Z" fill="#012E3B"/>
<path d="M0.955464 26.1666H44.0446C44.2462 26.1666 44.4397 26.2467 44.5823 26.3893C44.7249 26.5319 44.805 26.7253 44.805 26.927C44.805 27.1286 44.7249 27.322 44.5823 27.4646C44.4397 27.6072 44.2462 27.6874 44.0446 27.6874H0.955464C0.753795 27.6874 0.560385 27.6072 0.417783 27.4646C0.275181 27.322 0.195068 27.1286 0.195068 26.927C0.195068 26.7253 0.275181 26.5319 0.417783 26.3893C0.560385 26.2467 0.753795 26.1666 0.955464 26.1666Z" fill="#012E3B"/>
</svg>
