<svg width="55" height="51" viewBox="0 0 55 51" fill="none" xmlns="http://www.w3.org/2000/svg">
<path d="M52.434 24.3387C52.434 25.7651 51.1202 26.9276 49.5007 26.9429C49.4535 26.9373 49.4035 26.9346 49.3535 26.9373L49.3313 26.9387C47.7604 26.8748 46.5049 25.7346 46.5049 24.3387V22.3707H52.434V24.3387ZM48.4993 48.229H33.641V35.2999C33.641 34.8054 33.2396 34.4054 32.7452 34.4054H22.5049C22.0104 34.4054 21.6104 34.8054 21.6104 35.2999V48.229H6.7521V28.6637C8.03821 28.4457 9.14376 27.7373 9.8396 26.754C10.691 27.9457 12.1521 28.7346 13.809 28.7346C13.8396 28.7346 13.8702 28.7332 13.9021 28.7318C13.9257 28.7332 13.9479 28.7346 13.9715 28.7346C15.8354 28.7346 17.4479 27.7165 18.2104 26.2471C18.9799 27.7179 20.6118 28.7346 22.4938 28.7346C22.5063 28.7346 22.5174 28.7346 22.5299 28.7346C22.5382 28.7346 22.5452 28.7346 22.5535 28.7346C24.7424 28.7346 26.5854 27.3332 27.1118 25.4415C27.6382 27.3332 29.4827 28.7346 31.6702 28.7346C31.6771 28.7346 31.6827 28.7346 31.6896 28.7346C31.6993 28.7346 31.709 28.7346 31.7188 28.7346C33.6785 28.7346 35.3646 27.6332 36.091 26.0651C36.8132 27.6332 38.4799 28.7346 40.4188 28.7346C40.4396 28.7346 40.459 28.7332 40.4799 28.7318C40.5104 28.7332 40.5424 28.7346 40.5743 28.7346C42.5035 28.7346 44.1688 27.6651 44.9118 26.1332C45.5563 27.4707 46.8952 28.4582 48.4993 28.6846V48.229ZM2.68404 24.3387V22.3707H8.61321V24.3387C8.61321 25.7748 7.28404 26.9443 5.64932 26.9443C4.01321 26.9443 2.68404 25.7748 2.68404 24.3387ZM10.1035 11.2929H14.7174L9.14932 20.5818H3.09515L10.1035 11.2929ZM10.5521 2.20539H44.6979V9.50262H32.9243C32.9174 9.50262 32.9118 9.50262 32.9049 9.50262H22.016C22.009 9.50262 22.0021 9.50262 21.9965 9.50262H10.5521V2.20539ZM45.7702 20.5818L40.2021 11.2929H45.1465L52.1549 20.5818H45.7702ZM37.609 24.3387V22.3707H43.3368V24.3387C43.3368 25.7526 42.0702 26.904 40.4965 26.9415C38.8965 26.904 37.609 25.7526 37.609 24.3387ZM28.7549 24.3387V22.3707H34.5896V24.3387C34.5896 25.7679 33.2924 26.9318 31.6952 26.9429C30.0715 26.9318 28.7549 25.7679 28.7549 24.3387ZM19.634 24.3387V22.3707H25.4577V24.3387C25.4577 25.7665 24.1438 26.929 22.5243 26.9429C20.9285 26.929 19.634 25.7665 19.634 24.3387ZM11.0535 24.3387V22.3707H16.7743V24.3387C16.7743 25.7512 15.4882 26.9026 13.891 26.9401C12.3188 26.9026 11.0535 25.7512 11.0535 24.3387ZM32.2799 11.2929L35.3577 20.5818H28.5202V11.2929H32.2799ZM38.1146 11.2929L43.6827 20.5818H37.2438L34.166 11.2929H38.1146ZM26.7299 11.2929V20.5818H19.5618L22.6396 11.2929H26.7299ZM20.7535 11.2929L17.6771 20.5818H11.2368L16.8049 11.2929H20.7535ZM54.8535 21.4762C54.8535 21.2373 54.759 21.0207 54.6063 20.861L46.4882 10.0985V1.31095C46.4882 0.816504 46.0868 0.416504 45.5924 0.416504H9.65765C9.16321 0.416504 8.76182 0.816504 8.76182 1.31095V10.0985L0.585431 20.9373C0.381264 21.2082 0.346542 21.5721 0.497931 21.8748C0.585431 22.0512 0.727097 22.186 0.893764 22.2721V24.3387C0.893764 26.5457 2.66321 28.379 4.96043 28.6887V49.1235C4.96043 49.6179 5.36182 50.0193 5.85626 50.0193H22.5049C22.9993 50.0193 23.3993 49.6179 23.3993 49.1235V36.1943H31.8507V49.1235C31.8507 49.6179 32.2507 50.0193 32.7452 50.0193H49.3938C49.8882 50.0193 50.2896 49.6179 50.2896 49.1235V28.6679C52.5215 28.3068 54.2243 26.504 54.2243 24.3387V22.3318C54.5882 22.2179 54.8535 21.879 54.8535 21.4762Z" fill="#037394"/>
</svg>
