<svg width="58" height="49" viewBox="0 0 58 49" fill="none" xmlns="http://www.w3.org/2000/svg">
<path d="M56.1266 46.3804H55.2391V13.6762C55.2391 12.2179 54.0419 11.0235 52.5766 11.0235H48.1391V10.1401C48.1391 8.68179 46.9419 7.48873 45.4766 7.48873H41.0391V3.06928C41.0391 1.60956 39.8419 0.416504 38.3322 0.416504H18.8961C17.3877 0.416504 16.1891 1.60956 16.1891 3.06928V7.48873H11.7516C10.2877 7.48873 9.08911 8.68179 9.08911 10.1401V11.0235H4.65161C3.18772 11.0235 1.98911 12.2179 1.98911 13.6762V46.3804H1.10161C0.614112 46.3804 0.214111 46.779 0.214111 47.2651C0.214111 47.7512 0.614112 48.1485 1.10161 48.1485H56.1266C56.6155 48.1485 57.0141 47.7512 57.0141 47.2651C57.0141 46.779 56.6155 46.3804 56.1266 46.3804ZM53.4641 13.6762V41.961H41.0391V12.7915H52.5766C53.0655 12.7915 53.4641 13.1901 53.4641 13.6762ZM44.5891 43.729H46.3641V46.3804H44.5891V43.729ZM48.1391 46.3804V43.729H49.9141V46.3804H48.1391ZM21.5141 34.8901V33.1221H35.7141V34.8901H21.5141ZM19.7391 32.2387V33.1221H17.9641V28.7026H39.2641V33.1221H37.4891V32.2387C37.4891 31.7512 37.0905 31.354 36.6016 31.354H20.6266C20.1391 31.354 19.7391 31.7512 19.7391 32.2387ZM7.31411 43.729H9.08911V46.3804H7.31411V43.729ZM10.8641 46.3804V43.729H12.6391V46.3804H10.8641ZM14.4141 46.3804V43.729H16.1891V46.3804H14.4141ZM17.9641 6.60401H39.2641V9.25679H17.9641V6.60401ZM39.2641 15.4429V18.0957H17.9641V15.4429H39.2641ZM17.9641 22.5151V19.8637H39.2641V22.5151H17.9641ZM17.9641 24.2832H39.2641V26.9346H17.9641V24.2832ZM39.2641 11.0235V13.6762H17.9641V11.0235H39.2641ZM36.6016 36.6582C37.0905 36.6582 37.4891 36.2596 37.4891 35.7735V34.8901H39.2641V46.3804H35.271V36.6582H36.6016ZM45.4766 9.25679C45.9655 9.25679 46.3641 9.65401 46.3641 10.1401V11.0235H41.0391V9.25679H45.4766ZM18.8961 2.18456H38.3322C38.8655 2.18456 39.2641 2.58317 39.2641 3.06928V4.83595H17.9641V3.06928C17.9641 2.58317 18.4086 2.18456 18.8961 2.18456ZM10.8641 10.1401C10.8641 9.65401 11.2641 9.25679 11.7516 9.25679H16.1891V11.0235H10.8641V10.1401ZM4.65161 12.7915H16.1891V41.961H3.76411V13.6762C3.76411 13.1901 4.16411 12.7915 4.65161 12.7915ZM3.76411 43.729H5.53911V46.3804H3.76411V43.729ZM17.9641 34.8901H19.7391V35.7735C19.7391 36.2596 20.1391 36.6582 20.6266 36.6582H21.9586V46.3804H17.9641V34.8901ZM23.7336 46.3804V36.6582H33.4961V46.3804H23.7336ZM41.0391 43.729H42.8141V46.3804H41.0391V43.729ZM51.6891 46.3804V43.729H53.4641V46.3804H51.6891Z" fill="#037394"/>
</svg>
