<svg width="68" height="42" viewBox="0 0 68 42" fill="none" xmlns="http://www.w3.org/2000/svg">
<path d="M66.1811 1.66942C36.3005 -1.31531 16.1713 2.97775 6.36855 14.3916C-2.1759 24.3403 0.0782705 36.5389 0.968549 40.0472C1.23105 40.9903 2.01716 41.618 3.01299 41.618H42.5908C43.4297 41.618 44.2172 41.0944 44.5311 40.3097C44.845 39.5236 44.688 38.6333 44.0588 38.0055C42.0672 36.0153 39.97 33.9736 38.0838 32.193C35.5672 29.7847 33.4172 27.6389 32.2644 26.3819C30.4297 24.3916 28.3852 21.6694 28.3852 18.6847C28.438 14.968 31.7408 12.35 36.1963 10.518V18.5805H35.6713C34.5186 18.5805 33.5755 19.5236 33.5755 20.675V21.7222C33.5755 22.8736 34.5186 23.8166 35.6713 23.8166H46.1561C47.3088 23.8166 48.2533 22.8736 48.2533 21.7222V20.675C48.2533 19.5236 47.3088 18.5805 46.1561 18.5805H45.6325V7.89997C46.0519 7.79442 46.47 7.74303 46.9422 7.69025C48.9866 7.32358 51.0311 7.06247 52.9713 6.85275V12.8208H52.4463C51.2936 12.8208 50.3505 13.7639 50.3505 14.9153V15.9625C50.3505 17.1153 51.2936 18.0569 52.4463 18.0569H62.9311C64.0838 18.0569 65.0283 17.1153 65.0283 15.9625V14.9153C65.0283 13.7639 64.0838 12.8208 62.9311 12.8208H62.4061V6.22358C64.6088 6.17219 66.0241 6.17219 66.0769 6.17219C66.338 6.17219 66.6005 6.06664 66.8102 5.85831C67.02 5.64858 67.1241 5.38608 67.1241 5.12497V2.76803C67.1241 2.19303 66.7047 1.72081 66.1811 1.66942ZM46.1561 21.7222H35.6713V20.675H46.1561V21.7222ZM38.2936 18.5805V14.9153H43.5352V18.5805H38.2936ZM43.5352 12.8208H38.2936V9.73192C39.97 9.15692 41.7533 8.68469 43.5352 8.31803V12.8208ZM62.9311 15.9625H52.4463V14.9153H62.9311V15.9625ZM55.0672 12.8208V10.7264H60.3102V12.8208H55.0672ZM60.3102 8.63331H55.0672V6.64303C56.9547 6.48608 58.7366 6.38192 60.3102 6.27636V8.63331ZM65.0283 4.07775C62.2491 4.07775 54.3866 4.28747 46.5755 5.59581C33.1561 7.84719 26.3408 12.2458 26.288 18.6333C26.2366 22.4028 28.6477 25.4916 30.6922 27.7958C31.8977 29.1041 34.0991 31.2514 36.6158 33.7125C38.4505 35.4916 40.5477 37.5347 42.5394 39.5236H22.5672C22.3047 39.2097 21.8324 38.6333 21.3088 37.9C20.9936 37.4291 20.313 37.325 19.8408 37.6389C19.3686 37.9528 19.2644 38.6333 19.5783 39.1055C19.6838 39.2625 19.788 39.3666 19.8936 39.5236H3.01299C2.1741 36.2778 0.0782708 24.968 7.99355 15.7528C15.3852 7.16664 29.1186 2.87358 48.9866 2.87358C53.9672 2.87358 59.3144 3.13469 65.0283 3.71108V4.07775Z" fill="#037394"/>
</svg>
