<svg width="42" height="49" viewBox="0 0 42 49" fill="none" xmlns="http://www.w3.org/2000/svg">
<path d="M40.094 8.16842L21.719 0.539328C21.2587 0.348266 20.7412 0.348172 20.281 0.539328L1.90603 8.16842C1.20619 8.45905 0.75 9.1423 0.75 9.90008V19.1743C0.75 31.9443 8.46834 43.4312 20.2914 48.257C20.7456 48.4423 21.2543 48.4423 21.7086 48.257C33.5315 43.4313 41.25 31.9444 41.25 19.1743V9.90008C41.25 9.1423 40.7939 8.45905 40.094 8.16842ZM37.5 19.1743C37.5 30.0301 31.125 40.0236 21 44.4844C11.1456 40.1427 4.5 30.3243 4.5 19.1743V11.1518L21 4.30114L37.5 11.1518V19.1743ZM18.9276 25.4944L26.9867 17.4353C27.7189 16.7031 28.906 16.703 29.6383 17.4353C30.3706 18.1676 30.3705 19.3548 29.6382 20.087L20.2534 29.4718C19.521 30.2042 18.3338 30.2039 17.6017 29.4718L12.3617 24.2317C11.6294 23.4995 11.6294 22.3123 12.3617 21.5801C13.094 20.8479 14.2811 20.8478 15.0133 21.5801L18.9276 25.4944Z" fill="#FDB833"/>
</svg>
