<svg width="36" height="41" viewBox="0 0 36 41" fill="none" xmlns="http://www.w3.org/2000/svg">
<path fill-rule="evenodd" clip-rule="evenodd" d="M32.51 14.3703H33.4705C34.7083 14.3703 35.7123 15.3739 35.7123 16.6124V28.271C35.7123 29.5088 34.7082 30.5129 33.4705 30.5129H32.51V38.4939C32.51 39.3587 31.8061 40.0625 30.9414 40.0625H5.05906C4.1936 40.0625 3.49047 39.3587 3.49047 38.4939V30.5128H2.53011C1.29201 30.5128 0.288086 29.5088 0.288086 28.2709V16.612C0.288086 15.3734 1.29201 14.3699 2.53011 14.3699H3.49047V1.63116C3.49047 0.766433 4.1936 0.0625 5.05906 0.0625H24.0129C24.0741 0.0625 24.1345 0.0711086 24.1928 0.0849698C24.2003 0.0869292 24.2074 0.0894528 24.2145 0.0919881C24.2212 0.0943615 24.2279 0.0967451 24.2349 0.0986852C24.2885 0.114808 24.3406 0.137059 24.3897 0.16376L24.3915 0.164774C24.4084 0.174258 24.4247 0.183406 24.4409 0.194255C24.4977 0.23117 24.5513 0.273921 24.5972 0.32528C24.5982 0.326752 24.5994 0.327624 24.6007 0.328596C24.6016 0.329214 24.6025 0.329873 24.6034 0.330752L32.3155 9.1406C32.4415 9.28388 32.5001 9.46459 32.5016 9.64865C32.5021 9.65246 32.5027 9.65627 32.5032 9.66007C32.5066 9.68548 32.51 9.71077 32.51 9.7359V14.3703ZM23.2285 1.63152H5.05906V14.3708H30.9414V10.4414H24.0129C23.58 10.4414 23.2285 10.0905 23.2285 9.65719V1.63152ZM5.05906 38.0692H30.9414L30.9414 30.5129H5.05906V38.0692ZM27.6322 24.4395C28.0054 24.7002 28.192 25.0768 28.192 25.5692C28.192 26.0211 28.0054 26.3744 27.6322 26.6293C27.2591 26.8785 26.7397 27.003 26.0743 27.003C24.2831 27.003 23.3875 26.3049 23.3875 24.9088H20.5795C20.5795 25.7256 20.8034 26.444 21.2512 27.0638C21.7052 27.6837 22.3613 28.1732 23.2196 28.5324C24.0779 28.8858 25.0294 29.0625 26.0743 29.0625C27.5794 29.0625 28.7766 28.7526 29.6659 28.1327C30.5553 27.507 31 26.6467 31 25.5518C31 24.567 30.6362 23.7443 29.9085 23.0839C29.1808 22.4235 28.0209 21.8702 26.4288 21.4241C25.5643 21.1808 24.9081 20.9201 24.4604 20.642C24.0188 20.364 23.798 20.0193 23.798 19.608C23.798 19.1677 23.9877 18.8143 24.3671 18.5478C24.7464 18.2755 25.2782 18.1394 25.9623 18.1394C26.6713 18.1394 27.2217 18.3016 27.6136 18.626C28.0054 18.9446 28.2013 19.3936 28.2013 19.9729H31C31 19.214 30.7885 18.5362 30.3656 17.9395C29.9489 17.3428 29.3612 16.8822 28.6024 16.5578C27.8437 16.2276 26.9792 16.0625 26.009 16.0625C25.045 16.0625 24.1743 16.2131 23.3968 16.5144C22.6256 16.8156 22.0317 17.2356 21.615 17.7744C21.2045 18.3074 20.9993 18.9157 20.9993 19.5993C20.9993 20.9143 21.7705 21.96 23.3129 22.7363C23.8788 23.0202 24.6469 23.3098 25.6172 23.6053C26.5874 23.8949 27.2591 24.173 27.6322 24.4395ZM7.79871 28.8887H5V16.2363H7.79871V28.8887ZM18.5737 23.4054H13.2002V26.7945H19.5066V28.8887H10.4015V16.2363H19.488V18.3479H13.2002V21.3633H18.5737V23.4054Z" fill="#4D4D4D"/>
</svg>
