<svg width="38" height="38" viewBox="0 0 38 38" fill="none" xmlns="http://www.w3.org/2000/svg">
<path d="M19.4089 1.23307C9.68214 1.23307 1.76786 9.14735 1.76786 18.8762C1.76786 28.6029 9.68214 36.5172 19.4089 36.5172C29.1377 36.5172 37.052 28.6029 37.052 18.8762C37.052 9.14735 29.1377 1.23307 19.4089 1.23307ZM19.4089 37.4466C16.9025 37.4466 14.4698 36.9546 12.1801 35.9874C9.9702 35.0517 7.98322 33.7123 6.27799 32.0071C4.57276 30.3019 3.23339 28.3149 2.29772 26.105C1.33051 23.8153 0.838501 21.3825 0.838501 18.8762C0.838501 16.3678 1.33051 13.9371 2.29772 11.6474C3.23339 9.43541 4.57276 7.44843 6.27799 5.7432C7.98322 4.03797 9.9702 2.6986 12.1801 1.76504C14.4698 0.795725 16.9025 0.303711 19.4089 0.303711C21.9173 0.303711 24.3479 0.795725 26.6377 1.76504C28.8497 2.6986 30.8366 4.03797 32.5419 5.7432C34.2471 7.44843 35.5865 9.43541 36.52 11.6474C37.4893 13.9371 37.9814 16.3678 37.9814 18.8762C37.9814 21.3825 37.4893 23.8153 36.52 26.105C35.5865 28.3149 34.2471 30.3019 32.5419 32.0071C30.8366 33.7123 28.8497 35.0517 26.6377 35.9874C24.3479 36.9546 21.9173 37.4466 19.4089 37.4466ZM13.244 13.71C12.855 14.3303 13.408 15.4153 13.6687 15.9935C13.6855 16.1007 13.7255 16.3173 13.8117 16.5423C14.064 17.2067 14.4866 17.3055 14.7158 17.3034C14.7432 17.3034 14.7684 17.3034 14.7957 17.2992C14.8903 17.6903 15.0817 18.2812 15.4517 18.8783C17.1549 21.6264 21.726 21.6117 23.4123 18.8552C23.7781 18.258 23.9653 17.6651 24.0599 17.274C24.0851 17.2761 24.1124 17.2782 24.1377 17.2782C24.369 17.2782 24.7916 17.1773 25.0397 16.5107C25.1238 16.2858 25.1638 16.0692 25.1785 15.962C25.2163 15.6991 25.4266 15.4006 25.5128 15.1419C25.639 14.7698 25.7714 14.3577 25.6768 13.9624C25.6032 13.6533 25.3572 13.3694 25.0523 13.319C25.0523 12.6756 25.0797 12.0322 25.0649 11.3887C25.0565 10.9262 24.9998 10.4636 24.9325 10.0052C24.8757 9.62254 24.8946 9.22094 24.7832 8.84878C24.5687 8.14019 23.9989 7.57669 23.3513 7.24448C22.9076 7.01739 22.7352 6.52328 22.3841 6.19947C21.9846 5.82941 21.4106 5.69274 20.9165 5.50771C20.5317 5.36263 20.128 5.26801 19.7201 5.23016C19.4804 5.20703 19.2365 5.20283 18.9947 5.21965C18.7697 5.23437 18.5447 5.26801 18.3239 5.31427C18.0064 5.37945 14.6569 6.1427 15.191 6.93329C15.191 6.93539 15.1889 6.93749 15.1889 6.9417L15.1868 6.9438C14.7537 7.12463 14.3289 7.45264 14.4488 8.03717C14.4425 8.04978 14.4362 8.0624 14.4299 8.07501C14.3773 8.19066 14.2595 8.27686 14.207 8.39882C14.1061 8.628 14.1187 8.94129 14.0829 9.1873C13.9715 9.95686 13.8075 10.7159 13.7886 11.4981C13.7844 11.6411 13.8222 13.3316 13.8075 13.3337C13.5804 13.3736 13.368 13.5124 13.244 13.71ZM6.59759 29.8813C6.62282 29.3326 6.66277 28.7859 6.72164 28.2392C6.8478 27.0449 7.28094 25.9452 8.07153 25.0327C8.66236 24.3514 9.31628 23.8468 10.0038 23.4326C10.8722 22.9069 11.7721 22.5369 12.6721 22.1647C13.3996 21.864 14.1376 21.6159 14.8336 21.1681C14.9219 21.1113 15.0081 21.0482 15.0943 20.9851L18.4522 29.341C18.509 27.9953 18.5741 26.6517 18.6162 25.3081C18.6393 24.5049 17.5354 23.748 18.2819 22.9889C18.5678 22.6988 18.9926 22.6231 19.4089 22.6252H19.411C19.4131 22.6252 19.4131 22.6252 19.4152 22.6252C19.8315 22.6231 20.2562 22.6988 20.5422 22.9889C21.2886 23.748 20.1826 24.5049 20.2079 25.3081C20.2499 26.6517 20.3151 27.9953 20.3719 29.341L23.7298 20.9851C23.8139 21.0482 23.9022 21.1113 23.9884 21.1681C24.6844 21.6159 25.4245 21.864 26.152 22.1647C27.0519 22.5369 27.9518 22.9069 28.8202 23.4326C29.5078 23.8468 30.1617 24.3514 30.7525 25.0327C31.541 25.9452 31.9742 27.0449 32.1024 28.2392C32.1592 28.7796 32.1991 29.3262 32.2223 29.8771C29.1209 33.4852 24.5267 35.7729 19.4089 35.7729C14.2932 35.7729 9.69896 33.4852 6.59759 29.8813Z" fill="#2F7B98"/>
</svg>
