<svg width="40" height="41" viewBox="0 0 40 41" fill="none" xmlns="http://www.w3.org/2000/svg">
<path d="M35.4705 14.3703H34.51V9.7359C34.51 9.70701 34.5055 9.67791 34.5016 9.64865C34.5001 9.46459 34.4414 9.28388 34.3155 9.1406L26.6034 0.330752C26.601 0.32849 26.5988 0.327688 26.5972 0.32528C26.5513 0.273921 26.4977 0.23117 26.4409 0.194255C26.4242 0.18302 26.4072 0.173609 26.3897 0.16376C26.3406 0.137059 26.2885 0.114808 26.2349 0.0986852C26.2203 0.0946727 26.2073 0.0887634 26.1928 0.0849698C26.1345 0.0711086 26.0741 0.0625 26.0129 0.0625H7.05906C6.1936 0.0625 5.49047 0.766433 5.49047 1.63116V14.3699H4.53011C3.29201 14.3699 2.28809 15.3734 2.28809 16.612V28.2709C2.28809 29.5088 3.29201 30.5128 4.53011 30.5128H5.49047V38.4939C5.49047 39.3587 6.1936 40.0625 7.05906 40.0625H32.9414C33.8061 40.0625 34.51 39.3587 34.51 38.4939V30.5129H35.4705C36.7082 30.5129 37.7123 29.5088 37.7123 28.271V16.6124C37.7123 15.3739 36.7083 14.3703 35.4705 14.3703ZM7.05906 1.63152H25.2285V9.65719C25.2285 10.0905 25.58 10.4414 26.0129 10.4414H32.9414V14.3708H7.05906V1.63152ZM23.5871 16.3778V28.0902H20.9281V16.3778H23.5871ZM10.6741 18.5672V16.3778H19.1713V17.9074L13.7152 25.8315V25.9004H19.2586V28.0902H10.1529V26.6649L15.7313 18.6371V18.5672H10.6741ZM32.9414 38.0692H7.05906V30.5129H32.9414V38.0692H32.9414ZM33.2144 22.721C32.311 23.5724 30.973 23.9541 29.4089 23.9541C29.0605 23.9541 28.7486 23.9373 28.5051 23.9024V28.0901H25.8814V16.5342C26.6979 16.3946 27.8445 16.2908 29.4606 16.2908C31.0947 16.2908 32.2583 16.6034 33.041 17.2291C33.7877 17.8198 34.2917 18.7931 34.2917 19.9401C34.292 21.087 33.9095 22.06 33.2144 22.721Z" fill="#4D4D4D"/>
<path d="M29.6002 18.2891C29.0603 18.2891 28.6952 18.3414 28.5049 18.3938V21.8516C28.73 21.9037 29.0088 21.9214 29.3914 21.9214C30.7984 21.9214 31.6678 21.2082 31.6678 20.0099C31.6679 18.9323 30.9206 18.2891 29.6002 18.2891Z" fill="#4D4D4D"/>
</svg>
