<svg width="101" height="106" viewBox="0 0 101 106" fill="none" xmlns="http://www.w3.org/2000/svg">
<g clip-path="url(#clip0)">
<path d="M25.53 13.6099H1V18.3599H10.38V44.6999H16.16V18.3599H25.53V13.6099Z" fill="#2F7B98"/>
<path d="M47.61 16.5298C46.4547 15.4624 45.0935 14.6423 43.61 14.1198C41.9806 13.5358 40.2608 13.2447 38.53 13.2598C37.0471 13.2324 35.573 13.4939 34.19 14.0298C33.0049 14.4788 31.9206 15.1586 31 16.0298C30.1431 16.8349 29.4622 17.8086 29 18.8898C28.557 19.9335 28.3291 21.0559 28.33 22.1898C28.3117 23.4191 28.5395 24.6397 29 25.7798C29.3732 26.6835 29.9241 27.503 30.62 28.1898C31.2972 28.8335 32.0738 29.3636 32.92 29.7598C33.7733 30.1435 34.6481 30.4774 35.54 30.7598L38.17 31.5498C38.9655 31.7657 39.7364 32.064 40.47 32.4398C41.0964 32.7529 41.6487 33.1961 42.09 33.7398C42.5223 34.3149 42.7446 35.0207 42.72 35.7398C42.7579 36.3657 42.6554 36.9923 42.4201 37.5736C42.1848 38.1549 41.8227 38.6764 41.36 39.0998C40.2677 39.9418 38.9064 40.3577 37.53 40.2698C36.5874 40.2955 35.6482 40.1463 34.76 39.8298C34.0619 39.5634 33.3919 39.2285 32.76 38.8298C32.19 38.4698 31.69 38.1398 31.28 37.8298C30.9462 37.5702 30.542 37.4169 30.12 37.3898C29.8616 37.3884 29.6082 37.4613 29.39 37.5998C29.1674 37.725 28.9732 37.8953 28.82 38.0998L27.14 40.9998C27.764 41.6296 28.4548 42.1895 29.2 42.6698C29.9922 43.1719 30.8252 43.6067 31.69 43.9698C32.5833 44.3236 33.5072 44.5948 34.45 44.7798C35.4145 44.9756 36.3959 45.0761 37.38 45.0798C38.958 45.1003 40.5255 44.822 42 44.2598C43.2646 43.7861 44.4185 43.0577 45.39 42.1198C46.3133 41.2156 47.0327 40.1246 47.5 38.9198C47.9915 37.6441 48.2358 36.2867 48.22 34.9198C48.2523 33.789 48.0444 32.6643 47.61 31.6198C47.2341 30.7556 46.6824 29.9791 45.99 29.3398C45.3033 28.7086 44.5244 28.1859 43.68 27.7898C42.807 27.3958 41.9122 27.0519 41 26.7598C40.1 26.4498 39.22 26.1598 38.35 25.8898C37.5607 25.6552 36.7916 25.3576 36.05 24.9998C35.4283 24.6968 34.8739 24.2717 34.42 23.7498C34.0071 23.2308 33.791 22.5826 33.81 21.9198C33.8042 21.3784 33.9062 20.8413 34.11 20.3398C34.2973 19.8523 34.6032 19.4192 35 19.0798C35.4455 18.7159 35.9587 18.444 36.51 18.2798C37.1929 18.068 37.9052 17.9667 38.62 17.9798C39.4029 17.9623 40.1833 18.0738 40.93 18.3098C41.5266 18.5026 42.1027 18.7538 42.65 19.0598C43.14 19.3298 43.56 19.5798 43.9 19.7998C44.1989 19.9936 44.5441 20.1041 44.9 20.1198C45.155 20.13 45.4068 20.0601 45.62 19.9198C45.8484 19.7443 46.0332 19.5184 46.16 19.2598L47.61 16.5298Z" fill="#2F7B98"/>
<path d="M82.55 13.6098C82.3268 13.5982 82.1031 13.5982 81.88 13.6098C81.7051 13.6181 81.5327 13.6553 81.37 13.7198C81.2264 13.7828 81.0996 13.8787 81 13.9998C80.8527 14.145 80.731 14.3141 80.64 14.4998L71.41 31.7598C71.17 32.2298 70.94 32.6998 70.72 33.1998C70.5 33.6998 70.3 34.1998 70.1 34.7298C69.9 34.2098 69.7 33.7298 69.49 33.2198C69.28 32.7098 69.06 32.2198 68.82 31.7998L59.51 14.5298C59.4119 14.3483 59.2909 14.1803 59.15 14.0298C59.0315 13.903 58.8839 13.8069 58.72 13.7498C58.561 13.6841 58.3918 13.6469 58.22 13.6398C58.0035 13.6276 57.7865 13.6276 57.57 13.6398H53.21V44.6998H58.3V24.6198C58.3 24.2398 58.3 23.8198 58.3 23.3598C58.3 22.8998 58.23 22.4298 58.19 21.9498L67.69 39.6698C67.8654 40.0518 68.1475 40.3749 68.5024 40.6002C68.8572 40.8255 69.2696 40.9434 69.69 40.9398H70.51C70.93 40.9422 71.3419 40.8238 71.6965 40.5986C72.0511 40.3734 72.3335 40.051 72.51 39.6698L81.94 21.9998C81.86 22.9398 81.82 23.8098 81.82 24.6098V44.6998H86.91V13.6098H82.55Z" fill="#2F7B98"/>
<path d="M45.74 95.3099V86.4499H49.19C50.5595 86.3538 51.9163 86.7669 53 87.6099C53.4284 88.023 53.7627 88.5235 53.9801 89.0775C54.1975 89.6314 54.293 90.2257 54.26 90.8199C54.2847 91.4373 54.1966 92.0541 54 92.6399C53.7807 93.1841 53.4385 93.6701 53 94.0599C52.5254 94.4643 51.9793 94.7763 51.39 94.9799C50.6834 95.211 49.9433 95.3225 49.2 95.3099H45.74ZM42.85 84.1499V105.65H45.74V97.6499H49.19C50.3561 97.6694 51.5177 97.5005 52.63 97.1499C53.5497 96.8577 54.4003 96.3814 55.13 95.7499C55.7999 95.1656 56.3238 94.4328 56.66 93.6099C57.0201 92.7383 57.2004 91.8029 57.19 90.8599C57.2011 89.9215 57.0384 88.9891 56.71 88.1099C56.3993 87.2947 55.8907 86.5696 55.23 85.9999C54.5003 85.3822 53.6484 84.9256 52.73 84.6599C51.5822 84.3153 50.3882 84.15 49.19 84.1699L42.85 84.1499Z" fill="#2F7B98"/>
<path d="M63.76 94.4899V86.3699H66.93C68.2656 86.2795 69.5939 86.6309 70.71 87.3699C71.1384 87.7107 71.4791 88.149 71.7035 88.6483C71.9279 89.1476 72.0296 89.6933 72 90.2399C72.0066 90.8445 71.8874 91.4439 71.65 91.9999C71.4291 92.5233 71.0863 92.9861 70.65 93.3499C70.1721 93.7431 69.6217 94.0387 69.03 94.2199C68.3106 94.4382 67.5616 94.5428 66.81 94.5299L63.76 94.4899ZM70.48 96.9999C70.2245 96.6181 69.8817 96.3028 69.48 96.0799C70.2556 95.91 71.0031 95.6305 71.7 95.2499C72.3325 94.9311 72.9071 94.5086 73.4 93.9999C73.8336 93.465 74.1718 92.8595 74.4 92.2099C74.6668 91.5037 74.8023 90.7548 74.8 89.9999C74.8167 89.1593 74.6566 88.3246 74.33 87.5499C74.0294 86.807 73.5399 86.1555 72.91 85.6599C72.1815 85.1028 71.3483 84.6981 70.46 84.4699C69.3079 84.1701 68.1203 84.0288 66.93 84.0499H60.87V105.55H63.76V96.5499H66C66.3115 96.5347 66.6224 96.5894 66.91 96.7099C67.1252 96.8383 67.3095 97.0124 67.45 97.2199L73 105C73.1204 105.199 73.2932 105.361 73.4996 105.469C73.7059 105.576 73.9378 105.625 74.17 105.61H76.75L70.48 96.9999Z" fill="#2F7B98"/>
<path d="M98.55 90.3602C98.0736 89.0663 97.3348 87.8849 96.38 86.8902C95.4287 85.8979 94.2763 85.1205 93 84.6102C90.2139 83.5323 87.126 83.5323 84.34 84.6102C83.0792 85.1279 81.9413 85.9047 81 86.8902C80.0508 87.8874 79.3157 89.0683 78.84 90.3602C77.8134 93.2243 77.8134 96.3561 78.84 99.2202C79.318 100.514 80.0527 101.698 81 102.7C81.9496 103.699 83.1021 104.483 84.38 105C87.1562 106.057 90.2237 106.057 93 105C94.2604 104.496 95.399 103.729 96.34 102.75C97.2937 101.751 98.0322 100.566 98.51 99.2702C99.5365 96.4061 99.5365 93.2743 98.51 90.4102L98.55 90.3602ZM95.79 98.3602C95.4654 99.3375 94.9409 100.237 94.25 101C93.5841 101.726 92.764 102.293 91.85 102.66C89.8257 103.421 87.5943 103.421 85.57 102.66C84.6543 102.291 83.8314 101.724 83.16 101C82.467 100.229 81.9395 99.3234 81.61 98.3402C81.244 97.1964 81.065 96.001 81.08 94.8002C81.0651 93.5895 81.244 92.3843 81.61 91.2302C81.9371 90.2488 82.4649 89.3463 83.16 88.5802C83.8254 87.847 84.6498 87.2757 85.57 86.9102C87.5869 86.1106 89.833 86.1106 91.85 86.9102C92.7685 87.2736 93.59 87.8452 94.25 88.5802C94.9453 89.3444 95.4702 90.2477 95.79 91.2302C96.1643 92.3826 96.3467 93.5887 96.33 94.8002C96.3469 96.0019 96.1644 97.1982 95.79 98.3402V98.3602Z" fill="#2F7B98"/>
<path d="M8.20006 76.1098V57.0498H5.31006V78.5498H17.4901V76.1098H8.20006Z" fill="#F0B134"/>
<path d="M39.2499 68.2201V69.8601C39.2481 69.938 39.2622 70.0154 39.2914 70.0877C39.3207 70.1599 39.3644 70.2254 39.4199 70.2801C39.5467 70.391 39.7117 70.4484 39.8799 70.4401H43.2199V75.1601C42.4946 75.5491 41.7304 75.8608 40.9399 76.0901C40.0747 76.3337 39.1788 76.4516 38.2799 76.4401C37.1075 76.4587 35.9415 76.2621 34.8399 75.8601C33.8649 75.4852 32.9817 74.9055 32.2499 74.1601C31.5135 73.3787 30.9481 72.4523 30.5899 71.4401C30.1872 70.2727 29.9876 69.0449 29.9999 67.8101C29.983 66.6181 30.1655 65.4318 30.5399 64.3001C30.8826 63.3059 31.4274 62.3934 32.1399 61.6201C32.8447 60.8795 33.7008 60.2997 34.6499 59.9201C35.7175 59.5071 36.8555 59.3067 37.9999 59.3301C38.7249 59.3211 39.4489 59.3881 40.1599 59.5301C40.6937 59.6366 41.2161 59.794 41.7199 60.0001C42.1157 60.1606 42.4971 60.3547 42.8599 60.5801L43.6899 61.0901C43.7852 61.1597 43.8943 61.2082 44.0098 61.2323C44.1254 61.2565 44.2447 61.2557 44.3599 61.2301C44.5741 61.166 44.7585 61.0278 44.8799 60.8401L45.7099 59.5301C45.2435 59.1079 44.7416 58.7265 44.2099 58.3901C43.6665 58.0526 43.0902 57.7712 42.4899 57.5501C41.8439 57.2987 41.1737 57.1144 40.4899 57.0001C39.707 56.8674 38.914 56.8038 38.1199 56.8101C36.5601 56.7906 35.0104 57.0619 33.5499 57.6101C32.2175 58.0939 31.0062 58.8616 29.9999 59.8601C29.0307 60.8511 28.2781 62.0327 27.7899 63.3301C27.2659 64.7646 27.0083 66.2829 27.0299 67.8101C27.0105 69.3299 27.2785 70.8398 27.8199 72.2601C28.3272 73.5619 29.1003 74.7438 30.0899 75.7301C31.1128 76.727 32.332 77.5001 33.6699 78.0001C36.4782 78.9856 39.5255 79.0626 42.3799 78.2201C43.6179 77.8311 44.786 77.2471 45.8399 76.4901V68.2201H39.2499Z" fill="#F0B134"/>
<path d="M64.8101 57.0498V66.6398H53.2101V57.0498H50.3101V78.5498H53.2101V68.7598H64.8101V78.5498H67.7101V57.0498H64.8101Z" fill="#F0B134"/>
<path d="M87.74 57.0498H70.91V59.4998H77.91V78.4998H80.8V59.4998H87.8L87.74 57.0498Z" fill="#F0B134"/>
<path d="M89.21 103.68H22.89V58.9102C22.89 58.6449 22.7847 58.3906 22.5971 58.203C22.4096 58.0155 22.1552 57.9102 21.89 57.9102C21.6248 57.9102 21.3704 58.0155 21.1829 58.203C20.9954 58.3906 20.89 58.6449 20.89 58.9102V104.68C20.89 104.945 20.9954 105.2 21.1829 105.387C21.3704 105.575 21.6248 105.68 21.89 105.68C21.9894 105.677 22.0874 105.656 22.18 105.62C22.2729 105.655 22.3708 105.676 22.47 105.68H89.21C89.4752 105.68 89.7296 105.575 89.9171 105.387C90.1047 105.2 90.21 104.945 90.21 104.68C90.21 104.415 90.1047 104.161 89.9171 103.973C89.7296 103.786 89.4752 103.68 89.21 103.68Z" fill="#2F7B98"/>
<path d="M99.41 1C99.41 0.734784 99.3047 0.48043 99.1171 0.292893C98.9296 0.105357 98.6752 0 98.41 0L24.53 0C24.2648 0 24.0105 0.105357 23.8229 0.292893C23.6354 0.48043 23.53 0.734784 23.53 1C23.53 1.26522 23.6354 1.51957 23.8229 1.70711C24.0105 1.89464 24.2648 2 24.53 2H97.41V93.53C97.41 93.7952 97.5154 94.0496 97.7029 94.2371C97.8905 94.4246 98.1448 94.53 98.41 94.53C98.6752 94.53 98.9296 94.4246 99.1171 94.2371C99.3047 94.0496 99.41 93.7952 99.41 93.53V1.29C99.41 1.24 99.41 1.19 99.41 1.14C99.41 1.09 99.41 1.05 99.41 1Z" fill="#2F7B98"/>
</g>
<defs>
<clipPath id="clip0">
<rect width="98.41" height="105.75" fill="white" transform="translate(1)"/>
</clipPath>
</defs>
</svg>
